<?xml version="1.0" encoding="utf-8"?><svg viewBox="0 0 31 31" xmlns="http://www.w3.org/2000/svg" xmlns:xlink="http://www.w3.org/1999/xlink"><style>:root>svg{display:none}:root>svg:target{display:block}</style><svg viewBox="0 0 31 31" id="accident" xmlns="http://www.w3.org/2000/svg"><rect width="31" height="31" rx="5"/><path d="M17.457 17.992h7.831v2.491h-7.83v-2.491z" fill="#2A7DB8"/><path d="M10.999 12.296c-.405 0-.774.229-.955.59l-1.485 2.97-2.414.483A1.424 1.424 0 005 17.735v2.748h9.61v-8.187H11z" fill="#4398D1"/><path d="M21.373 22.619a2.136 2.136 0 100-4.271 2.136 2.136 0 000 4.27z" fill="#5E5E5F"/><path d="M21.373 21.195a.712.712 0 100-1.424.712.712 0 000 1.424z" fill="#EBEBEB"/><path d="M11.407 13.72l-1.068 2.136h2.848V13.72h-1.78z" fill="#87CED9"/><path d="M14.254 10.873h2.136a.712.712 0 110 1.424h-2.136a.712.712 0 010-1.424zM24.949 15.5h-.745a1.052 1.052 0 01-.583-1.926l.6-.4V9.271a.178.178 0 00-.357 0v.534h-.711v-.534a.89.89 0 111.78 0v4.093c0 .12-.06.23-.16.296l-.757.506a.34.34 0 00.188.622h.745a.34.34 0 00.34-.34v-.372H26v.373c0 .58-.471 1.05-1.051 1.051z" fill="#DE4C3C"/><path d="M24.932 9.271a.89.89 0 10-1.78 0v.534h.712v-.534a.178.178 0 11.356 0v1.602l.712-1.068v-.534z" fill="#BF362C"/><path d="M14.61 16.568v3.915h3.204l1.067-2.136h4.983l1.068 2.136h.712v-3.915H14.61z" fill="#4398D1"/><path d="M5 17.635h2.136v1.424H5v-1.424z" fill="#EBEBEB"/><path d="M12.119 16.924h1.423v.712H12.12v-.712z" fill="#2A7DB8"/><path d="M9.271 22.619a2.136 2.136 0 100-4.271 2.136 2.136 0 000 4.27z" fill="#5E5E5F"/><path d="M23.85 8.381a.727.727 0 00-.56.264l-5.659 6.85.538 1.073h1.424l4.852-6.931a.726.726 0 00.131-.417v-.113c0-.4-.325-.726-.726-.726z" fill="#FDB62F"/><path d="M17.633 15.494l-1.6-3.198H14.61l1.424 4.272h2.135l-.536-1.074z" fill="#FDB62F"/><path d="M9.271 21.195a.712.712 0 100-1.424.712.712 0 000 1.424z" fill="#EBEBEB"/><path d="M14.61 16.568h.712v3.915h-.712v-3.915z" fill="#3E8CC7"/><path d="M17.633 15.494l.537 1.074h1.15l-.923-2-.764.926z" fill="#FFA83D"/><path d="M13.186 13.898l-1.957 1.958h1.957v-1.958z" fill="#71C4D1"/><path d="M16.568 11.585h-2.67a.89.89 0 01-.348-.072.681.681 0 00-.008.072c0 .393.32.712.712.712h2.136a.712.712 0 00.69-.877.88.88 0 01-.512.165z" fill="#BF362C"/></svg><svg viewBox="0 0 31 31" id="auto" xmlns="http://www.w3.org/2000/svg"><rect width="31" height="31" rx="5"/><g clip-path="url(#bclip0)"><path d="M25.707 16.405a3.076 3.076 0 00-.643-1.716c-.859-1.118-1.026-2.005-1.026-2.005-.674-1.766-1.273-2.943-1.714-3.69a2.96 2.96 0 00-2.168-1.428c-1.817-.235-7.496-.235-9.314 0a2.963 2.963 0 00-2.167 1.429c-.44.746-1.04 1.923-1.714 3.689 0 0-.167.887-1.026 2.005a3.075 3.075 0 00-.642 1.716c-.065 1.353.327 1.65.677 4.71.028.242.231.423.474.423h18.112a.477.477 0 00.474-.422c.099-.859.39-2.6.39-2.6.257-.865.312-1.57.287-2.111z" fill="#E95353"/><path d="M23.657 12.613c-.532-1.33-1.074-2.492-1.613-3.418a2.669 2.669 0 00-1.928-1.296c-1.822-.242-7.423-.24-9.23 0a2.67 2.67 0 00-1.929 1.296c-.547.938-1.096 2.115-1.62 3.418 5.432.427 10.888.427 16.32 0z" fill="#3E8CC7"/><path d="M22.886 14.151c-.208.065-.4.156-.562.247a6.9 6.9 0 01-.91.436c-.523.199-.612.495-.612.495-.016.02-.03.04-.045.061-.397.589.124 1.372.827 1.273a10.085 10.085 0 002.279-.61.817.817 0 00.512-.628c.156-.843-.67-1.53-1.49-1.274z" fill="#fff"/><path d="M23.972 18.868H22.84a.191.191 0 00-.135.326l1.13 1.131c.12.12.327.035.327-.135v-1.13a.19.19 0 00-.191-.192z" fill="#FFE21F"/><path d="M25.03 21.114a.477.477 0 01-.474.424H22.38V22.8c0 .447.363.81.81.81h1.367a.81.81 0 00.81-.81v-3.952c-.09.547-.265 1.641-.337 2.266z" fill="#454545"/><path d="M25.984 11.73a.652.652 0 00-.643-.494h-.546a.633.633 0 00-.633.633v.39h-.29l.167.394h.636c.33 0 .656-.071.955-.208a.633.633 0 00.354-.716z" fill="#ED6262"/><path d="M23.244 15.967a.796.796 0 100-1.592.796.796 0 000 1.592z" fill="#FFBD49"/><path d="M21.643 16.384a.585.585 0 100-1.17.585.585 0 000 1.17z" fill="#FFDB6F"/><path d="M20.127 15.8l-.914 1.592h-7.426l-.914-1.592h9.254z" fill="#6F6F6F"/><path d="M10.243 15.39a.778.778 0 00-.046-.061s-.088-.296-.61-.494a6.934 6.934 0 01-.912-.437 3.016 3.016 0 00-.561-.247c-.818-.255-1.646.432-1.49 1.274l.015.072a.817.817 0 00.496.557c.425.17 1.263.465 2.28.609.704.1 1.224-.684.828-1.273z" fill="#fff"/><path d="M8.159 18.868h-1.13a.19.19 0 00-.192.191v1.13c0 .17.206.256.326.136l1.131-1.13a.191.191 0 00-.135-.327z" fill="#FFE21F"/><path d="M23.029 20.841c-1.177-2.037-2.531-1.973-2.531-1.973h-9.996s-1.353-.064-2.531 1.973H5.936l.025.263a.477.477 0 00.476.434h18.127a.477.477 0 00.476-.434l.025-.263h-2.036z" fill="#777"/><path d="M6.444 21.538a.478.478 0 01-.474-.423 60.136 60.136 0 00-.336-2.267v3.953c0 .447.362.81.81.81H7.81a.81.81 0 00.81-.81v-1.263H6.444z" fill="#454545"/><path d="M6.837 12.258v-.389a.633.633 0 00-.632-.633h-.546c-.302 0-.578.2-.643.493a.633.633 0 00.354.715c.3.137.625.208.955.208h.636l.166-.394h-.29z" fill="#ED6262"/><path d="M7.755 15.967a.796.796 0 100-1.592.796.796 0 000 1.592z" fill="#FFBD49"/><path d="M9.358 16.384a.585.585 0 100-1.17.585.585 0 000 1.17z" fill="#FFDB6F"/><path d="M19.732 19.425h-8.464a.24.24 0 000 .479h8.464a.24.24 0 000-.48zM19.732 20.38h-8.464a.24.24 0 000 .48h8.464a.24.24 0 000-.48z" fill="#6F6F6F"/><path d="M22.77 10.584v.082a.58.58 0 01-.608.58c-.31-.02-.548-.297-.548-.614V9.455a.486.486 0 00-.509-.482h-.013-.006a.487.487 0 00-.509.482v1.065a.58.58 0 01-.614.574c-.31-.013-.548-.297-.548-.607V9.56a.514.514 0 00-.515-.51h-.04a.485.485 0 00-.482.483v1.204c0 .33-.278.595-.614.581-.31-.02-.542-.297-.542-.614V9.091a.46.46 0 00-.489-.456h-.04a.486.486 0 00-.487.483v1.65c0 .317-.258.58-.581.58a.576.576 0 01-.574-.56V9.402c0-.317-.238-.593-.548-.614a.58.58 0 00-.608.581l-.007 1.28a.58.58 0 01-.607.58c-.305-.018-.536-.286-.545-.59V9.139c0-.312-.234-.59-.546-.61a.581.581 0 00-.61.58v1.573a.584.584 0 01-.61.566c-.311-.02-.542-.297-.542-.614V9.455a.492.492 0 00-.515-.482H9.9a.488.488 0 00-.516.482v1.065c0 .33-.277.595-.607.574-.288-.01-.502-.251-.538-.53a33.251 33.251 0 00-.902 2.048c5.431.428 10.888.428 16.32 0a32.893 32.893 0 00-.887-2.028z" fill="#5BAADF"/></g><defs><clipPath id="bclip0"><path fill="#fff" transform="translate(5 5)" d="M0 0h21v21H0z"/></clipPath></defs></svg><svg viewBox="0 0 31 31" id="battery" xmlns="http://www.w3.org/2000/svg"><rect width="31" height="31" rx="5"/><g clip-path="url(#cclip0)"><path d="M6.655 11.896h17.69v11.138H6.655V11.897z" fill="#87CED9"/><path d="M6 9.93h19v1.966H6V9.931z" fill="#4398D1"/><path d="M22.38 9.93H25v1.966h-2.62V9.931z" fill="#3E8CC7"/><path d="M12.06 23.034h12.285V11.897h-1.146L12.06 23.034z" fill="#71C4D1"/><path d="M7.638 7.965h1.965v1.966H7.638V7.965z" fill="#DEDEDE"/><path d="M6 23.035h19V25H6v-1.965z" fill="#4398D1"/><path d="M21.397 7.965h1.965v1.966h-1.965V7.965z" fill="#DEDEDE"/><path d="M18.12 6h-5.896a.655.655 0 00-.655.655v3.276h1.31v-2.62h5.242v2.62h1.31V6.655A.655.655 0 0018.776 6h-.655z" fill="#4398D1"/><path d="M8.62 13.862h14.087v7.207H8.62v-7.207z" fill="#DEDEDE"/><path d="M16.155 17.138l.82-3.276.163-.655-.655.655-3.931 3.931 2.293.027-.818 3.25-.165.654.655-.655 3.931-3.93h-2.293z" fill="#FDB62F"/><path d="M11.569 15.5h-.655v-.655h-.655v.655h-.655v.655h.655v.655h.655v-.655h.655V15.5z" fill="#DE4C3C"/><path d="M19.431 15.5h1.966v.655H19.43V15.5z" fill="#2A7DB8"/><path d="M11.569 8.948h1.31v.983h-1.31v-.983zM18.12 8.948h1.311v.983h-1.31v-.983zM22.38 23.035H25V25h-2.62v-1.965z" fill="#3E8CC7"/><path d="M6.655 11.896h17.69v.983H6.655v-.982z" fill="#71C4D1"/></g><defs><clipPath id="cclip0"><path fill="#fff" transform="translate(6 6)" d="M0 0h19v19H0z"/></clipPath></defs></svg><svg viewBox="0 0 31 31" id="candle" xmlns="http://www.w3.org/2000/svg"><rect width="31" height="31" rx="5"/><g clip-path="url(#dclip0)"><path d="M6.882 24.02l.712-.71.503.503-.712.711-.503-.503z" fill="#FA962A"/><path d="M5.92 22.137l5.843-5.843 3.35 3.351-5.842 5.842-3.35-3.35z" fill="#FDB62F"/><path d="M23.152 10.035l-1.78-1.78.713-.711 1.067-.356.356-1.068 1.218-.712L26 6.69l-.712 1.21-1.068.357-.356 1.067-.712.712z" fill="#DEDEDE"/><path d="M11.05 13.95l1.78-1.78 6.407 6.407-1.78 1.78-6.406-6.407z" fill="#3E8CC7"/><path d="M12.83 15.73l1.78-1.78 2.848 2.848-1.78 1.78-2.848-2.848z" fill="#4398D1"/><path d="M17.814 17.154l-3.56-3.56 5.34-5.338h1.779l1.78 1.78v1.78l-5.34 5.338z" fill="#87CED9"/><path d="M10.695 15.73l1.068-1.067 4.983 4.983-1.068 1.068-4.983-4.983z" fill="#F46B27"/><path d="M13.305 18.34l1.068-1.067 2.373 2.372-1.068 1.068-2.373-2.373z" fill="#DE4C3C"/><path d="M6.528 25.592L5.356 24.42a1.215 1.215 0 010-1.719l2.596-2.596.503.504-2.596 2.596a.504.504 0 000 .711l1.172 1.172-.503.504z" fill="#FDB62F"/><path d="M18.451 9.397l.504-.503.89.89-.504.503-.89-.89zM17.384 10.465l.503-.504.89.89-.504.504-.89-.89zM21.121 12.065l.504-.503.89.89-.504.503-.89-.89zM20.053 13.135l.504-.504.89.89-.504.504-.89-.89zM16.316 11.533l.503-.504.89.89-.503.504-.89-.89zM18.986 14.202l.503-.503.89.89-.503.503-.89-.89zM15.248 12.6l.503-.504.89.89-.503.503-.89-.89zM17.918 15.27l.503-.503.89.89-.503.503-.89-.89z" fill="#59B3C2"/><path d="M8.056 20l.503-.503 3.344 3.344-.503.504L8.056 20zM9.124 18.933l.503-.504 3.344 3.344-.503.504-3.344-3.344zM6.988 21.068l.503-.503 3.345 3.344-.504.503-3.344-3.344zM10.191 17.865l.504-.503 3.344 3.344-.503.503-3.345-3.344z" fill="#FA962A"/><path d="M10.325 22.27l.503-.503 1.075 1.075-.503.503-1.075-1.075zM11.393 21.202l.503-.504 1.075 1.075-.503.504-1.075-1.075zM9.257 23.338l.503-.504 1.075 1.076-.503.503-1.075-1.075zM12.46 20.133l.503-.504 1.076 1.076-.504.503-1.075-1.075z" fill="#FA7D16"/></g><defs><clipPath id="dclip0"><path fill="#fff" transform="translate(5 5)" d="M0 0h21v21H0z"/></clipPath></defs></svg><svg viewBox="0 0 31 31" id="electrician" xmlns="http://www.w3.org/2000/svg"><rect width="31" height="31" rx="5"/><path d="M22.17 17.672c0-1.2-.972-2.173-2.172-2.173H11.31c-1.2 0-2.172.973-2.172 2.173v2.534l1.448.724H22.17v-3.258z" fill="#4398D1"/><path d="M19.998 15.5H18.55c1.2 0 2.173.972 2.173 2.172v3.258h1.448v-3.258c0-1.2-.973-2.173-2.172-2.173z" fill="#3E8CC7"/><path d="M14.206 12.965V15.5l1.448 2.172 1.448-2.172v-2.535h-2.896z" fill="#FEC9A3"/><path d="M14.206 15.5l1.448 2.172 1.448-2.173h-2.896z" fill="#EBEBEB"/><path d="M10.947 18.396h.724v2.534h-.724v-2.534zM19.637 18.396h.724v2.534h-.724v-2.534zM17.826 15.5h-.724l-1.448 2.172-1.448-2.173h-.724v1.449l1.81.603v3.38h.724v-3.38l1.81-.603v-1.449z" fill="#2A7DB8"/><path d="M16.74 19.12h2.173v.724H16.74v-.724z" fill="#2A7DB8"/><path d="M14.206 12.965v1.468a3.23 3.23 0 002.896 0v-1.468h-2.896z" fill="#F0B081"/><path d="M12.396 8.62v2.173a3.259 3.259 0 006.517 0V8.62h-6.518z" fill="#FEC9A3"/><path d="M17.464 8.62v2.173a3.259 3.259 0 01-2.534 3.175 3.25 3.25 0 003.982-3.175V8.62h-1.448z" fill="#F7BB8F"/><path d="M18.913 8.258V6.81c0-1-.811-1.81-1.81-1.81h-2.897c-1 0-1.81.81-1.81 1.81v2.173h8.689v-.725h-2.172z" fill="#4398D1"/><path d="M15.292 9.707h.724v1.81h-.724v-1.81z" fill="#F0B081"/><path d="M12.396 10.793h-1.81V8.62h1.81v2.172zM12.194 13.99l-1.086-.723a.362.362 0 01-.16-.302v-2.172h.723v1.979l.925.615-.402.604zM22.533 20.93h3.316a3.617 3.617 0 00-6.632 0H12.09a3.62 3.62 0 100 2.897h7.126a3.617 3.617 0 006.632 0h-3.316v-2.896zm-11.948 2.535l-1.81 1.086-1.84-.965.03-2.293 1.81-1.087 1.81 1.087v2.172z" fill="#87CED9"/><path d="M17.464 6.81v1.448h1.448V6.81c0-1-.81-1.81-1.81-1.81h-1.448c1 0 1.81.81 1.81 1.81zM19.636 8.258h1.448v.724h-1.448v-.724z" fill="#3E8CC7"/><path d="M22.533 20.93h3.316a3.617 3.617 0 00-6.632 0h-1.753l-2.896 2.897h4.649a3.617 3.617 0 006.632 0h-3.316V20.93z" fill="#71C4D1"/><path d="M12.033 22.017h7.241v.724h-7.24v-.724z" fill="#59B3C2"/><path d="M10.947 10.793h.724v.724h-.724v-.724z" fill="#71C4D1"/></svg><svg viewBox="0 0 31 31" id="engine" xmlns="http://www.w3.org/2000/svg"><rect width="31" height="31" rx="5"/><g clip-path="url(#fclip0)"><path d="M7.172 20.207H5.724v-3.259L5 15.862v-1.086l.724-1.086h1.448v6.517z" fill="#DE4C3C"/><path d="M7.172 16.224h1.449v1.448H7.172v-1.448z" fill="#D64333"/><path d="M11.88 8.62h7.24v1.449h-7.24V8.62z" fill="#4398D1"/><path d="M17.31 8.62h1.81v1.449h-1.81V8.62zM14.776 10.069h1.448v1.448h-1.448V10.07z" fill="#3E8CC7"/><path d="M20.207 13.69l-1.448-2.173H12.24l-1.448 2.173H8.621v6.517h2.172l1.448 2.172h10.5V13.69h-2.534z" fill="#4398D1"/><path d="M20.207 13.69l-.64-.959a24.073 24.073 0 01-8.11 8.473l.784 1.175h10.5v-8.69h-2.534z" fill="#3E8CC7"/><path d="M26 20.931l-.724.724H24.19v-7.241h1.086l.724.724v5.793z" fill="#4398D1"/><path d="M22.741 16.586h1.449v2.173H22.74v-2.173z" fill="#3E8CC7"/><path d="M18.397 16.586h-2.173l.724-3.258-4.345 3.982h2.173l-.724 3.259 4.345-3.983z" fill="#FDB62F"/><path d="M20.93 13.69h.725v8.69h-.724v-8.69z" fill="#2A7DB8"/><path d="M9.707 16.224h.724v2.897h-.724v-2.897zM9.707 14.776h.724v.724h-.724v-.724z" fill="#60AADB"/></g><defs><clipPath id="fclip0"><path fill="#fff" transform="translate(5 5)" d="M0 0h21v21H0z"/></clipPath></defs></svg><svg viewBox="0 0 31 31" id="food" xmlns="http://www.w3.org/2000/svg"><rect width="31" height="31" rx="5"/><g clip-path="url(#gclip0)"><path d="M24.582 21.385H6.418A1.418 1.418 0 015 19.967v-.279c0-.783.635-1.418 1.418-1.418h18.164c.783 0 1.418.635 1.418 1.418v.28c0 .782-.635 1.417-1.418 1.417z" fill="#E94444"/><path d="M26 19.688v.28c0 .782-.635 1.417-1.418 1.417h-.83c.784 0 1.418-.635 1.418-1.418v-.279c0-.783-.634-1.418-1.417-1.418h.83c.782 0 1.417.635 1.417 1.418z" fill="#D83131"/><path d="M24.582 21.385H6.418S5.79 24.41 9.356 25.6c.61.204 1.248.299 1.887.299h8.514c.639 0 1.276-.095 1.887-.299 3.565-1.19 2.938-4.215 2.938-4.215z" fill="#FDB62F"/><path d="M21.644 25.6a5.95 5.95 0 01-1.888.3h-.962a5.95 5.95 0 001.888-.3c3.564-1.19 2.938-4.214 2.938-4.214h.962s.627 3.024-2.938 4.214z" fill="#F2A40F"/><path d="M24.615 18.835c0 .708-.822 1.092-1.369.643a1.336 1.336 0 00-.91-.332c-1.14 0-1.14.903-2.28.903s-1.14-.902-2.28-.902-1.14.902-2.28.902-1.14-.902-2.28-.902-1.14.902-2.28.902-1.14-.902-2.28-.902c-.421 0-.687.146-.911.33-.547.45-1.37.066-1.37-.642V17.16h18.24v1.675z" fill="#BBEC6C"/><path d="M24.616 17.16v1.675a.835.835 0 01-1.26.719.82.82 0 00.41-.719V17.16h.85z" fill="#A2E62E"/><path d="M6.385 15.818v1.355H8.34c.407 0 .737.33.737.736v3.902a.942.942 0 001.883 0v-3.902c0-.407.33-.736.736-.736h12.92v-1.355H6.385z" fill="#FEE45A"/><path d="M23.765 15.818h.85v1.355h-.85v-1.355z" fill="#FEDF30"/><path d="M24.582 15.91H6.418A1.418 1.418 0 015 14.494v-.28c0-.782.635-1.417 1.418-1.417h18.164c.783 0 1.418.635 1.418 1.418v.279c0 .783-.635 1.418-1.418 1.418z" fill="#9E5528"/><path d="M26 14.213v.28c0 .783-.635 1.417-1.418 1.417h-.83c.784 0 1.418-.634 1.418-1.417v-.28c0-.782-.634-1.417-1.417-1.417h.83c.782 0 1.417.635 1.417 1.418z" fill="#904D24"/><path d="M15.5 5.102c-7.081.102-9.46 3.943-10.246 6.175a1.179 1.179 0 001.116 1.565h18.26c.817 0 1.383-.808 1.11-1.578-.79-2.234-3.173-6.06-10.24-6.162z" fill="#FDB62F"/><path d="M24.63 12.842h-.1a1.18 1.18 0 00.234-1.187c-.79-2.234-3.174-6.06-10.241-6.162-1.828.026-3.343.302-4.598.735 1.423-.654 3.244-1.093 5.575-1.126 7.067.102 9.45 3.928 10.241 6.162a1.182 1.182 0 01-1.111 1.578z" fill="#F2A40F"/><path d="M12.577 8.349a.307.307 0 01-.27-.453l.275-.508a.307.307 0 11.54.292l-.275.508a.307.307 0 01-.27.161zM15.496 8.384a.307.307 0 01-.306-.307V7.5a.307.307 0 11.613 0v.578c0 .17-.138.307-.307.307zM18.423 8.344a.307.307 0 01-.266-.152l-.29-.5a.307.307 0 11.53-.308l.29.5a.307.307 0 01-.264.46z" fill="#E57917"/></g><defs><clipPath id="gclip0"><path fill="#fff" transform="translate(5 5)" d="M0 0h21v21H0z"/></clipPath></defs></svg><svg viewBox="0 0 31 31" id="instruction" xmlns="http://www.w3.org/2000/svg"><rect width="31" height="31" rx="5"/><g clip-path="url(#hclip0)"><path d="M9.259 7.172H20.12c.8 0 1.448.649 1.448 1.449v15.93c0 .8-.648 1.449-1.448 1.449H9.259c-.8 0-1.449-.648-1.449-1.448V8.62c0-.8.649-1.449 1.449-1.449z" fill="#4398D1"/><path d="M11.431 26h8.69c.8 0 1.448-.648 1.448-1.448v-8.69L11.431 26z" fill="#3E8CC7"/><path d="M17.224 21.655h2.897v2.897h-2.897v-2.897z" fill="#D64333"/><path d="M20.12 8.62H9.26v15.932h7.965l2.897-2.897V8.621z" fill="#87CED9"/><path d="M24.103 11.88l-2.534 2.534-1.448 1.448-2.535 2.535-.362 1.448 1.448-.362 1.449-1.448 1.448-1.449 3.62-3.62-1.086-1.087z" fill="#FDB62F"/><path d="M10.707 16.948h6.155v.724h-6.155v-.724zM10.707 18.396h5.069v.725h-5.07v-.724zM10.707 19.845h5.069v.724h-5.07v-.724zM10.707 21.293h5.069v.724h-5.07v-.724zM19.034 13.066l-1.252-.417-1.132-1.132H13.09L11.97 12.64l-1.624.405V15.5h1.153a1.08 1.08 0 002.039 0h2.305a1.08 1.08 0 002.04 0h1.152v-2.434zM12.517 15.5a.362.362 0 110-.724.362.362 0 010 .724zm4.345 0a.362.362 0 110-.724.362.362 0 010 .724zm1.448-.724h-.424c-.004-.013-.01-.024-.015-.037-.008-.02-.018-.039-.027-.059a1.123 1.123 0 00-.063-.116c-.011-.018-.021-.036-.034-.053a1.084 1.084 0 00-.1-.12l-.021-.025a1.114 1.114 0 00-.145-.121l-.046-.028a1.106 1.106 0 00-.183-.091 1.025 1.025 0 00-.13-.04c-.02-.006-.04-.012-.06-.015a.99.99 0 00-.398 0c-.02.003-.04.01-.06.014a1.024 1.024 0 00-.313.132l-.045.028c-.051.036-.1.076-.145.12l-.021.025c-.037.038-.07.079-.1.121l-.034.053a1.103 1.103 0 00-.09.175c-.005.012-.011.023-.015.037h-2.3c-.004-.013-.01-.024-.015-.037-.008-.02-.018-.039-.027-.059a1.103 1.103 0 00-.063-.116 1.106 1.106 0 00-.134-.174l-.021-.024a1.107 1.107 0 00-.145-.121l-.045-.028a1.106 1.106 0 00-.183-.091 1.025 1.025 0 00-.13-.04c-.02-.006-.04-.012-.06-.015a.989.989 0 00-.399 0c-.02.003-.039.01-.059.014a1.025 1.025 0 00-.313.132l-.046.028c-.051.036-.1.076-.145.12l-.021.025c-.037.038-.07.079-.1.121l-.034.053a1.123 1.123 0 00-.09.175l-.015.037h-.427V13.61l1.271-.318 1.05-1.05h2.959l1.04 1.04.92.308.001 1.186z" fill="#59B3C2"/><path d="M10.707 10.069h7.965l-.543-1.448-.543-1.449h-1.81V6.086a1.086 1.086 0 10-2.172 0v1.086h-1.81l-.544 1.449-.543 1.448z" fill="#DE4C3C"/><path d="M22.761 13.222l.512-.512 1.087 1.086-.512.512-1.087-1.086z" fill="#FA962A"/><path d="M17.224 24.552l2.897-2.897h-2.897v2.897z" fill="#59B3C2"/><path d="M18.13 8.62l-.544-1.448h-.724l-2.896 2.897h4.707l-.544-1.448z" fill="#D64333"/></g><defs><clipPath id="hclip0"><path fill="#fff" transform="translate(6 5)" d="M0 0h21v21H0z"/></clipPath></defs></svg><svg viewBox="0 0 31 31" id="key" xmlns="http://www.w3.org/2000/svg"><rect width="31" height="31" rx="5"/><g clip-path="url(#iclip0)"><path d="M5 24.464c0-.408.162-.798.45-1.086l6.43-6.43 2.172 2.173-6.43 6.429A1.537 1.537 0 015 24.464z" fill="#DEDEDE"/><path d="M13.146 18.215l-6.08 6.08a.362.362 0 000 .512l.65.65 6.336-6.337-.906-.905z" fill="#C7C7C7"/><path d="M14.008 19.077l-2.085-2.085a2.622 2.622 0 010-3.708l7.516-7.516a2.622 2.622 0 013.708 0l2.085 2.085a2.622 2.622 0 010 3.708l-7.516 7.516a2.622 2.622 0 01-3.708 0z" fill="#4398D1"/><path d="M15.862 18.397c-.312 0-.61-.123-.83-.344l-2.085-2.085a1.174 1.174 0 010-1.66l7.516-7.516a1.174 1.174 0 011.66 0l2.085 2.085a1.174 1.174 0 010 1.66l-7.516 7.516c-.22.22-.519.345-.83.344z" fill="#3E8CC7"/><path d="M18.502 9.964l.513-.512 2.534 2.534-.512.512-2.535-2.534zM15.606 12.86l.512-.513 2.534 2.535-.512.512-2.534-2.535z" fill="#2A7DB8"/><path d="M22.454 8.546a1.132 1.132 0 00-1.598 0l-.543.543a.362.362 0 000 .512l1.086 1.086c.142.141.37.141.512 0l.543-.543a1.13 1.13 0 00.001-1.597v-.001zm-.512 1.086l-.287.287-.574-.574.287-.287a.406.406 0 11.574.574zM18.779 11.157l-.04.724a.406.406 0 01.263.693l-.287.287-.574-.575.287-.287-.512-.512-.543.543a.362.362 0 000 .513l1.086 1.086c.141.141.37.141.512 0l.543-.543a1.13 1.13 0 00-.735-1.927v-.002zM15.756 14.52a.362.362 0 00-.256-.106v-.724h-.724v.724h-.362a.362.362 0 00-.256.106l-.362.362a.362.362 0 000 .512l1.81 1.81c.141.141.37.141.512 0l.362-.362a.362.362 0 00.106-.256V15.5a.362.362 0 00-.106-.256l-.724-.724zm.106 1.916l-1.298-1.298h.786l.512.512v.786z" fill="#DEDEDE"/></g><defs><clipPath id="iclip0"><path fill="#fff" transform="translate(5 5)" d="M0 0h21v21H0z"/></clipPath></defs></svg><svg viewBox="0 0 31 31" id="petrol" xmlns="http://www.w3.org/2000/svg"><rect width="31" height="31" rx="5"/><g clip-path="url(#jclip0)"><path d="M21.57 7.696L17.473 6.33a2.62 2.62 0 00-1.937.112L11.57 8.293H7.638v14.742c0 1.085.88 1.965 1.965 1.965h11.794c1.085 0 1.965-.88 1.965-1.965V10.182a2.62 2.62 0 00-1.792-2.486zm-5.51.692l.062-.062c.22-.22.547-.29.838-.182l3.775 1.416a.792.792 0 01-.542 1.487l-3.836-1.353a.792.792 0 01-.296-1.306zm5.664 12.19a.819.819 0 11-1.638 0v-5.405a.819.819 0 011.638 0v5.405z" fill="#4398D1"/><path d="M7.638 6h3.931v2.293H7.638V6z" fill="#DE4C3C"/><path d="M8.62 6h.656v.983h-.655V6zM9.931 6h.655v.983h-.655V6z" fill="#D64333"/><path d="M21.57 7.696l-1.058-.353a34.388 34.388 0 01-.569 1.92l.79.295a.792.792 0 01-.541 1.488l-.786-.277c-3.054 7.946-8.19 11.493-11.604 13.052A1.966 1.966 0 009.603 25h11.794c1.085 0 1.965-.88 1.965-1.966V10.182a2.62 2.62 0 00-1.792-2.486zm.154 12.882a.819.819 0 11-1.638 0v-5.405a.819.819 0 011.638 0v5.405z" fill="#3E8CC7"/><path d="M9.604 12.552v9.172c0 .724.586 1.31 1.31 1.31h6.224a1.31 1.31 0 001.31-1.31V13.47a1.31 1.31 0 00-.862-1.231l-2.741-.996h-3.931a1.31 1.31 0 00-1.31 1.31z" fill="#87CED9"/><path d="M13.805 13.862l-1.738 3.864a1.906 1.906 0 103.477 0l-1.739-3.864z" fill="#FA962A"/></g><defs><clipPath id="jclip0"><path fill="#fff" transform="translate(6 6)" d="M0 0h19v19H0z"/></clipPath></defs></svg><svg viewBox="0 0 31 31" id="truck" xmlns="http://www.w3.org/2000/svg"><rect width="31" height="31" rx="5"/><path d="M25.017 11.918l-1.586-1.586h-3.966l-1.586 1.586-1.983.396v2.38H27v-2.38l-1.983-.396z" fill="#DE4C3C"/><path d="M24.383 11.283l-6.063 3.41H27v-2.379l-1.983-.396-.634-.635z" fill="#D64333"/><path d="M10.388 10.332a.793.793 0 00-.674.372l-1.748 2.8-2.69.538c-.742.148-1.276.8-1.276 1.555v3.062h10.31v-8.327h-3.922z" fill="#4398D1"/><path d="M4 16.28h10.31v2.38H4v-2.38z" fill="#3E8CC7"/><path d="M10.741 11.918l-.793 1.586h2.776v-1.586h-1.983z" fill="#87CED9"/><path d="M4 15.487h2.38v1.586H4v-1.586z" fill="#DEDEDE"/><path d="M11.534 14.694h1.19v.793h-1.19v-.793z" fill="#2A7DB8"/><path d="M18.276 15.883a1.19 1.19 0 100-2.38 1.19 1.19 0 000 2.38zM24.62 15.883a1.19 1.19 0 100-2.38 1.19 1.19 0 000 2.38zM8.362 20.642a1.983 1.983 0 100-3.966 1.983 1.983 0 000 3.966z" fill="#696969"/><path d="M7.966 18.262h.793v.794h-.793v-.794z" fill="#DEDEDE"/><path d="M14.31 16.676v1.983h11.5l1.19-.793v-1.19H14.31z" fill="#4398D1"/><path d="M21.845 20.642a1.983 1.983 0 100-3.966 1.983 1.983 0 000 3.966z" fill="#696969"/><path d="M21.448 18.262h.793v.794h-.793v-.794z" fill="#DEDEDE"/><path d="M14.31 16.676h.793v1.983h-.793v-1.983z" fill="#2A7DB8"/><path d="M9.92 17.446a2.751 2.751 0 01-3.163 2.368 1.976 1.976 0 103.163-2.368zM23.403 17.47a2.751 2.751 0 01-3.164 2.367 1.976 1.976 0 103.164-2.368z" fill="#565657"/><path d="M10.94 13.504h1.784v-1.586h-.198l-1.586 1.586z" fill="#71C4D1"/><path d="M4 16.28h2.38v.793H4v-.793z" fill="#C7C7C7"/></svg><svg viewBox="0 0 31 31" id="washing" xmlns="http://www.w3.org/2000/svg"><rect width="31" height="31" rx="5"/><g clip-path="url(#lclip0)"><path d="M16.561 6.478V5.063h-2.123v1.415L10.9 8.955h9.2L16.56 6.478z" fill="#4398D1"/><path d="M23.638 23.814H7.363a.708.708 0 01-.708-.707v-3.642c0-.578.352-1.099.89-1.314l.879-.351h14.152l.88.351c.537.215.89.736.89 1.314v3.642c0 .39-.317.707-.708.707z" fill="#DE4C3C"/><path d="M23.456 18.151l-.88-.351h-1.415l.88.351c.537.215.89.736.89 1.314v3.642c0 .39-.318.707-.709.707h1.416c.39 0 .707-.316.707-.707v-3.642c0-.578-.352-1.099-.89-1.314z" fill="#D64333"/><path d="M22.576 17.8H8.424l2.406-3.31a1.415 1.415 0 011.145-.582h7.05c.453 0 .879.216 1.145.583l2.406 3.309z" fill="#87CED9"/><path d="M8.778 19.215h.707c.391 0 .708.317.708.708v.354c0 .39-.317.707-.708.707h-.707a.708.708 0 01-.708-.708v-.353c0-.391.317-.708.708-.708zM21.515 19.215h.707c.39 0 .708.317.708.708v.354c0 .39-.317.707-.708.707h-.707a.708.708 0 01-.708-.708v-.353c0-.391.317-.708.708-.708z" fill="#EBEBEB"/><path d="M12.316 19.215h6.368c.391 0 .708.317.708.708v.354c0 .39-.317.707-.708.707h-6.368a.708.708 0 01-.708-.708v-.353c0-.391.317-.708.708-.708z" fill="#BF362C"/><path d="M6.655 22.4h17.69v.707c0 .39-.316.707-.707.707H7.363a.708.708 0 01-.708-.707v-.708z" fill="#D64333"/><path d="M6.655 23.107v2.477c0 .195.158.353.354.353h2.123a.354.354 0 00.353-.353v-1.77H7.363a.708.708 0 01-.708-.707zM23.638 23.814h-2.123v1.77c0 .195.158.353.354.353h2.122a.354.354 0 00.354-.353v-2.477c0 .39-.316.707-.707.707z" fill="#696969"/><path d="M6.655 23.107v1.061c0 .196.158.354.354.354h2.123a.354.354 0 00.353-.354v-.354H7.363a.708.708 0 01-.708-.707zM23.638 23.814h-2.123v.354c0 .196.158.354.354.354h2.122a.354.354 0 00.354-.354v-1.061c0 .39-.316.707-.707.707z" fill="#5E5E5F"/><path d="M20.17 14.49a1.415 1.415 0 00-1.145-.582h-.694L14.439 17.8h8.137l-2.406-3.31z" fill="#71C4D1"/><path d="M15.146 10.016h.708v1.061h-.708v-1.061zM15.146 11.785h.708v1.061h-.708v-1.061zM11.016 10.613l.673-.821.547.448-.673.821-.547-.448zM9.895 11.982l.673-.821.547.448-.673.821-.547-.448zM8.774 13.35l.673-.82.547.447-.672.822-.548-.449zM7.654 14.719l.673-.822.547.449-.673.821-.547-.448zM13.094 10.937l.297-1.019.68.198-.298 1.02-.68-.2zM12.598 12.633l.298-1.019.679.199-.298 1.018-.68-.198zM8.9 10.403l.78-.72.48.52-.78.72-.48-.52zM7.6 11.604l.78-.72.48.52-.78.72-.48-.52zM6.3 12.802l.78-.72.48.52-.78.72-.48-.52zM5 14.001l.78-.72.48.52-.78.72-.48-.52zM18.765 10.313l.547-.448.672.821-.547.448-.672-.821zM19.886 11.681l.548-.448.672.82-.547.45-.673-.822zM21.006 13.05l.547-.448.673.82-.547.45-.673-.822zM22.127 14.418l.547-.448.673.821-.547.448-.673-.82zM16.929 10.192l.679-.198.297 1.019-.68.198-.296-1.019zM17.425 11.887l.68-.199.297 1.019-.68.198-.297-1.018zM20.84 10.276l.48-.52.78.72-.48.52-.78-.72zM22.14 11.476l.48-.52.78.72-.48.52-.78-.72zM23.44 12.675l.48-.52.78.72-.48.52-.78-.72zM24.74 13.875l.48-.52.78.72-.48.52-.78-.72z" fill="#87CED9"/><path d="M17.394 7.06L15.5 8.956h4.6L17.393 7.06z" fill="#3E8CC7"/></g><defs><clipPath id="lclip0"><path fill="#fff" transform="translate(5 5)" d="M0 0h21v21H0z"/></clipPath></defs></svg><svg viewBox="0 0 31 31" id="wheels" xmlns="http://www.w3.org/2000/svg"><rect width="31" height="31" rx="5"/><g clip-path="url(#mclip0)"><path d="M24.552 5.724H13.69a1.446 1.446 0 00-1.448 1.444v3.625c0 .8.648 1.448 1.448 1.448h10.862A1.446 1.446 0 0026 10.797V7.173c0-.8-.648-1.449-1.448-1.449z" fill="#696969"/><path d="M24.552 5.724h-3.62c.799 0 1.447.649 1.447 1.448v3.621a1.448 1.448 0 01-1.448 1.448h3.62a1.446 1.446 0 001.45-1.444V7.173c0-.8-.65-1.449-1.45-1.449z" fill="#5E5E5F"/><path d="M12.242 8.62H26v.725H12.242V8.62zM12.242 10.069H26v.724H12.242v-.724zM12.242 7.172H26v.724H12.242v-.724z" fill="#535354"/><path d="M24.552 18.759H13.69a1.446 1.446 0 00-1.448 1.444v3.624c0 .8.648 1.449 1.448 1.449h10.862A1.446 1.446 0 0026 23.832v-3.625c0-.8-.648-1.448-1.448-1.448z" fill="#696969"/><path d="M24.552 18.759h-3.62c.799 0 1.447.648 1.447 1.448v3.62a1.448 1.448 0 01-1.448 1.448h3.62a1.446 1.446 0 001.45-1.443v-3.625c0-.8-.65-1.448-1.45-1.448z" fill="#5E5E5F"/><path d="M12.242 21.655H26v.724H12.242v-.724zM12.242 23.104H26v.724H12.242v-.724zM12.242 20.207H26v.724H12.242v-.724z" fill="#535354"/><path d="M23.104 12.242H12.242a1.446 1.446 0 00-1.449 1.443v3.625c0 .8.649 1.449 1.449 1.449h10.862a1.446 1.446 0 001.448-1.444V13.69c0-.8-.649-1.448-1.448-1.448z" fill="#5E5E5F"/><path d="M23.103 12.242h-3.62c.8 0 1.448.648 1.448 1.448v3.62a1.448 1.448 0 01-1.448 1.448h3.62a1.446 1.446 0 001.449-1.443V13.69c0-.8-.649-1.448-1.449-1.448z" fill="#585859"/><path d="M10.793 15.138h13.759v.724H10.793v-.724zM10.793 16.586h13.759v.724H10.793v-.724zM10.793 13.69h13.759v.724H10.793v-.724z" fill="#535354"/><path d="M12.241 23.466a5.431 5.431 0 100-10.863 5.431 5.431 0 000 10.863z" fill="#4398D1"/><path d="M12.241 10.793a7.241 7.241 0 100 14.483 7.241 7.241 0 000-14.483zm0 12.673a5.431 5.431 0 110-10.862 5.431 5.431 0 010 10.862z" fill="#737373"/><path d="M14.414 18.035l2.976-1.718a5.784 5.784 0 00-.2-.511l-.006-.013c-.046-.1-.1-.196-.151-.293-.032-.06-.06-.123-.094-.181l-.005-.008a5.46 5.46 0 00-.632-.874l-2.974 1.715v-3.44h-.014a5.377 5.377 0 00-2.13-.002c-.01.01-.018.022-.027.033v3.409l-2.973-1.717-.01.01a5.513 5.513 0 00-.624.864l-.005.008c-.09.154-.171.313-.245.474l-.006.013a5.555 5.555 0 00-.2.51l2.975 1.72-2.977 1.719c.058.174.125.344.2.51l.007.013c.074.162.155.32.244.474l.005.008a5.472 5.472 0 00.633.874l2.974-1.715v3.44l.013.002a5.382 5.382 0 002.146 0l.014-.002v-3.44l2.974 1.717a5.352 5.352 0 00.632-.874l.005-.008c.034-.059.062-.121.093-.181.052-.097.106-.192.151-.293l.007-.013c.075-.166.141-.336.2-.51l-2.976-1.72zm-2.897 0a.724.724 0 111.448 0 .724.724 0 01-1.448 0z" fill="#87CED9"/><path d="M17.39 16.317a5.798 5.798 0 00-.2-.511l-.006-.013c-.046-.1-.1-.196-.15-.293-.033-.06-.06-.123-.094-.18l-.005-.01c-.01-.016-.022-.031-.032-.048l-3.435 2.012a1.443 1.443 0 11-2.49 1.458l-3.44 2.013.005.007.005.009a5.47 5.47 0 00.632.874l2.975-1.718v3.44l.013.002a5.387 5.387 0 002.147 0l.013-.002v-3.44l2.974 1.717a5.349 5.349 0 00.632-.874l.005-.008c.034-.059.062-.121.094-.181.051-.097.105-.192.15-.293l.007-.013c.075-.166.141-.336.2-.51l-2.976-1.72 2.976-1.718z" fill="#71C4D1"/></g><defs><clipPath id="mclip0"><path fill="#fff" transform="translate(5 5)" d="M0 0h21v21H0z"/></clipPath></defs></svg></svg>