<svg width="14" height="13" viewBox="0 0 14 13" fill="none" xmlns="http://www.w3.org/2000/svg">
<path d="M13.1892 4.51739L9.22203 3.94083L7.44859 0.345514C7.40015 0.247076 7.32046 0.167389 7.22203 0.118951C6.97515 -0.00292391 6.67515 0.0986386 6.55171 0.345514L4.77828 3.94083L0.811089 4.51739C0.701714 4.53301 0.601714 4.58458 0.525151 4.6627C0.432592 4.75784 0.381587 4.88583 0.383345 5.01855C0.385103 5.15127 0.439479 5.27786 0.534526 5.37051L3.40484 8.16895L2.72671 12.1205C2.71081 12.2124 2.72098 12.307 2.75608 12.3934C2.79117 12.4798 2.84978 12.5547 2.92526 12.6095C3.00074 12.6644 3.09007 12.6969 3.18312 12.7036C3.27617 12.7102 3.36922 12.6906 3.45171 12.6471L7.00015 10.7815L10.5486 12.6471C10.6455 12.6986 10.758 12.7158 10.8658 12.6971C11.1377 12.6502 11.3205 12.3924 11.2736 12.1205L10.5955 8.16895L13.4658 5.37051C13.5439 5.29395 13.5955 5.19395 13.6111 5.08458C13.6533 4.81114 13.4627 4.55801 13.1892 4.51739Z" fill="#FEC353"/>
</svg>
