<svg width="31" height="31" viewBox="0 0 31 31" xmlns="http://www.w3.org/2000/svg">
<rect width="31" height="31" rx="5"/>
<path d="M17.4575 17.9917H25.288V20.4832H17.4575V17.9917Z" fill="#2A7DB8"/>
<path d="M10.9989 12.2964C10.5945 12.2964 10.2248 12.5249 10.0439 12.8865L8.55932 15.8557L6.14468 16.3387C5.47917 16.4717 5.00009 17.056 5 17.7347V20.4828H14.6102V12.2964H10.9989Z" fill="#4398D1"/>
<path d="M21.3729 22.6188C22.5524 22.6188 23.5085 21.6627 23.5085 20.4832C23.5085 19.3038 22.5524 18.3477 21.3729 18.3477C20.1934 18.3477 19.2373 19.3038 19.2373 20.4832C19.2373 21.6627 20.1934 22.6188 21.3729 22.6188Z" fill="#5E5E5F"/>
<path d="M21.3728 21.1947C21.7659 21.1947 22.0846 20.876 22.0846 20.4829C22.0846 20.0897 21.7659 19.771 21.3728 19.771C20.9796 19.771 20.6609 20.0897 20.6609 20.4829C20.6609 20.876 20.9796 21.1947 21.3728 21.1947Z" fill="#EBEBEB"/>
<path d="M11.4069 13.7202L10.3391 15.8558H13.1866V13.7202H11.4069Z" fill="#87CED9"/>
<path d="M14.2543 10.873H16.3899C16.7831 10.873 17.1018 11.1917 17.1018 11.5849C17.1018 11.9781 16.7831 12.2968 16.3899 12.2968H14.2543C13.8612 12.2968 13.5425 11.9781 13.5425 11.5849C13.5425 11.1917 13.8612 10.873 14.2543 10.873Z" fill="#DE4C3C"/>
<path d="M24.9486 15.5H24.204C23.6233 15.5001 23.1525 15.0294 23.1523 14.4488C23.1523 14.0971 23.328 13.7687 23.6206 13.5737L24.2204 13.174V9.27118C24.2204 9.1729 24.1407 9.09321 24.0424 9.09321C23.9441 9.09321 23.8644 9.1729 23.8644 9.27118V9.80508H23.1526V9.27118C23.1526 8.77972 23.5509 8.38135 24.0424 8.38135C24.5338 8.38135 24.9322 8.77972 24.9322 9.27118V13.3644C24.9322 13.4834 24.8728 13.5945 24.7738 13.6605L24.0157 14.166C23.8596 14.2699 23.8174 14.4807 23.9213 14.6368C23.9843 14.7314 24.0904 14.7882 24.204 14.7881H24.9486C25.136 14.788 25.288 14.636 25.2882 14.4486V14.0763H26V14.4486C25.9994 15.029 25.529 15.4994 24.9486 15.5Z" fill="#DE4C3C"/>
<path d="M24.9322 9.27118C24.9322 8.77972 24.5339 8.38135 24.0424 8.38135C23.551 8.38135 23.1526 8.77972 23.1526 9.27118V9.80508H23.8645V9.27118C23.8645 9.1729 23.9441 9.09321 24.0424 9.09321C24.1407 9.09321 24.2204 9.1729 24.2204 9.27118V10.8729L24.9322 9.80508V9.27118Z" fill="#BF362C"/>
<path d="M14.6101 16.5679V20.4831H17.8135L18.8813 18.3475H23.8643L24.9321 20.4831H25.644V16.5679H14.6101Z" fill="#4398D1"/>
<path d="M5 17.6353H7.13559V19.059H5V17.6353Z" fill="#EBEBEB"/>
<path d="M12.1187 16.9238H13.5424V17.6357H12.1187V16.9238Z" fill="#2A7DB8"/>
<path d="M9.27109 22.6188C10.4505 22.6188 11.4067 21.6627 11.4067 20.4832C11.4067 19.3038 10.4505 18.3477 9.27109 18.3477C8.09164 18.3477 7.1355 19.3038 7.1355 20.4832C7.1355 21.6627 8.09164 22.6188 9.27109 22.6188Z" fill="#5E5E5F"/>
<path d="M23.8503 8.38135C23.6337 8.38139 23.4284 8.47812 23.2904 8.64509L17.6311 15.4943L18.1693 16.5678H19.593L24.4447 9.63672C24.5302 9.51468 24.5761 9.36928 24.5761 9.22028V9.10709C24.5761 8.70627 24.2511 8.38135 23.8503 8.38135Z" fill="#FDB62F"/>
<path d="M17.6327 15.4941L16.0338 12.2964H14.6101L16.0338 16.5676H16.7457H18.1694L17.6327 15.4941Z" fill="#FDB62F"/>
<path d="M9.27119 21.1947C9.66434 21.1947 9.98306 20.876 9.98306 20.4829C9.98306 20.0897 9.66434 19.771 9.27119 19.771C8.87804 19.771 8.55933 20.0897 8.55933 20.4829C8.55933 20.876 8.87804 21.1947 9.27119 21.1947Z" fill="#EBEBEB"/>
<path d="M14.6101 16.5679H15.322V20.4831H14.6101V16.5679Z" fill="#3E8CC7"/>
<path d="M17.6328 15.4943L18.1696 16.5678H19.3196L18.397 14.5688L17.6328 15.4943Z" fill="#FFA83D"/>
<path d="M13.1864 13.8984L11.2288 15.8561H13.1864V13.8984Z" fill="#71C4D1"/>
<path d="M16.5679 11.5847H13.8984C13.7786 11.5847 13.6599 11.5605 13.5496 11.5135C13.546 11.5371 13.5436 11.5609 13.5425 11.5847C13.5425 11.9779 13.8612 12.2966 14.2543 12.2966H16.3899C16.7831 12.2966 17.1018 11.9779 17.1018 11.5847C17.1012 11.5291 17.0942 11.4738 17.0808 11.4199C16.9312 11.5271 16.7519 11.5847 16.5679 11.5847Z" fill="#BF362C"/>
</svg>
