<svg width="31" height="31" viewBox="0 0 31 31" xmlns="http://www.w3.org/2000/svg">
<rect width="31" height="31" rx="5"/>
<g clip-path="url(#clip0)">
<path d="M25.7068 16.405C25.6759 15.7816 25.4443 15.1844 25.0636 14.6889C24.2052 13.5713 24.0379 12.684 24.0379 12.684C23.3639 10.918 22.7647 9.74133 22.3244 8.99451C21.861 8.21026 21.0597 7.68199 20.1561 7.56584C18.3389 7.33092 12.6596 7.33092 10.8424 7.56584C9.93935 7.68267 9.13805 8.21093 8.67472 8.99451C8.23435 9.74133 7.63587 10.918 6.96121 12.684C6.96121 12.684 6.79388 13.5713 5.93548 14.6889C5.55551 15.1844 5.32317 15.7816 5.29301 16.405C5.22804 17.7576 5.61985 18.0549 5.97029 21.1157C5.99787 21.3566 6.20128 21.5377 6.44412 21.5377H24.5564C24.7992 21.5377 25.0026 21.3559 25.0302 21.1157C25.1286 20.2573 25.4207 18.5162 25.4207 18.5162C25.6766 17.6506 25.7323 16.9451 25.7068 16.405Z" fill="#E95353"/>
<path d="M23.6567 12.6126C23.1252 11.2824 22.5831 10.1208 22.0436 9.19476C21.6348 8.49452 20.9135 8.00563 20.1155 7.89866C18.2944 7.65714 12.6932 7.65912 10.8852 7.89866C10.0872 8.00563 9.3659 8.49456 8.95705 9.19476C8.41038 10.1326 7.8611 11.3099 7.3374 12.6126C12.7686 13.0398 18.2248 13.0398 23.6567 12.6126Z" fill="#3E8CC7"/>
<path d="M22.8857 14.1512C22.6783 14.2162 22.4854 14.3074 22.3239 14.398C22.0299 14.5621 21.728 14.715 21.4131 14.8344C20.8907 15.0326 20.8021 15.3286 20.8021 15.3286C20.7863 15.3489 20.7712 15.3693 20.7568 15.3903C20.3604 15.9789 20.8808 16.7625 21.5836 16.6628C22.6002 16.519 23.4376 16.2244 23.8628 16.0537C24.1063 15.9559 24.2966 15.7525 24.359 15.4972C24.3649 15.4729 24.3701 15.4487 24.3747 15.425C24.5309 14.5824 23.7041 13.8959 22.8857 14.1512Z" fill="white"/>
<path d="M23.9717 18.8682H22.841C22.671 18.8682 22.5857 19.0736 22.7058 19.1943L23.8366 20.3251C23.9566 20.4452 24.1627 20.3599 24.1627 20.1899V19.0591C24.1627 18.9535 24.0774 18.8682 23.9717 18.8682Z" fill="#FFE21F"/>
<path d="M25.0303 21.1144C25.0028 21.3559 24.7987 21.5377 24.5559 21.5377H22.3804V22.8003C22.3804 23.2473 22.7426 23.6102 23.1902 23.6102H24.5566C25.0035 23.6102 25.3664 23.2479 25.3664 22.8003V18.8477C25.2765 19.395 25.1019 20.489 25.0303 21.1144Z" fill="#454545"/>
<path d="M25.9844 11.7293C25.9188 11.4353 25.6425 11.2358 25.3413 11.2358H24.7953C24.4454 11.2358 24.162 11.5194 24.162 11.8691V12.2583H23.8726L24.0386 12.6527H24.6752C25.0046 12.6527 25.3308 12.5818 25.6301 12.4447C25.8997 12.3213 26.0507 12.026 25.9844 11.7293Z" fill="#ED6262"/>
<path d="M23.2438 15.9671C23.6835 15.9671 24.0399 15.6107 24.0399 15.1711C24.0399 14.7314 23.6835 14.375 23.2438 14.375C22.8042 14.375 22.4478 14.7314 22.4478 15.1711C22.4478 15.6107 22.8042 15.9671 23.2438 15.9671Z" fill="#FFBD49"/>
<path d="M21.6426 16.3838C21.9655 16.3838 22.2273 16.122 22.2273 15.7991C22.2273 15.4761 21.9655 15.2144 21.6426 15.2144C21.3197 15.2144 21.0579 15.4761 21.0579 15.7991C21.0579 16.122 21.3197 16.3838 21.6426 16.3838Z" fill="#FFDB6F"/>
<path d="M20.1272 15.7998L19.213 17.3919H11.7868L10.8726 15.7998H20.1272Z" fill="#6F6F6F"/>
<path d="M10.2426 15.3905C10.2288 15.3695 10.2137 15.3491 10.1973 15.3288C10.1973 15.3288 10.1087 15.0328 9.58632 14.8346C9.27132 14.7152 8.97008 14.5623 8.67543 14.3982C8.51334 14.3076 8.32105 14.2164 8.11366 14.1514C7.29595 13.8955 6.46843 14.5826 6.62396 15.4252C6.62857 15.4495 6.63381 15.4732 6.63906 15.4974C6.70141 15.7527 6.89171 15.9562 7.13518 16.054C7.56044 16.2246 8.39782 16.5192 9.41505 16.663C10.1186 16.7627 10.639 15.9791 10.2426 15.3905Z" fill="white"/>
<path d="M8.1589 18.8682H7.02814C6.92247 18.8682 6.83716 18.9535 6.83716 19.0591V20.1899C6.83716 20.3599 7.04324 20.4452 7.16332 20.3251L8.29408 19.1943C8.41417 19.0742 8.32885 18.8682 8.1589 18.8682Z" fill="#FFE21F"/>
<path d="M23.0288 20.8413C21.8515 18.8042 20.4976 18.8679 20.4976 18.8679H10.5021C10.5021 18.8679 9.14885 18.8042 7.97085 20.8413H5.93579L5.96075 21.1038C5.98371 21.3506 6.18979 21.5376 6.43652 21.5376H24.5639C24.8106 21.5376 25.0167 21.3506 25.0397 21.1038L25.0646 20.8413L23.0288 20.8413Z" fill="#777777"/>
<path d="M6.44402 21.5381C6.20119 21.5381 5.9971 21.3557 5.96956 21.1149C5.89804 20.4894 5.72279 19.3948 5.63354 18.8481V22.8008C5.63354 23.2478 5.99579 23.6107 6.44339 23.6107H7.80971C8.25663 23.6107 8.61955 23.2484 8.61955 22.8008V21.5382H6.44402V21.5381Z" fill="#454545"/>
<path d="M6.83728 12.2583V11.8691C6.83728 11.5193 6.55376 11.2358 6.20463 11.2358H5.65864C5.35744 11.2358 5.08114 11.4354 5.0155 11.7293C4.94921 12.0253 5.10081 12.3213 5.36987 12.444C5.66977 12.5812 5.99529 12.652 6.32475 12.652H6.96134L7.12736 12.2576H6.83728V12.2583Z" fill="#ED6262"/>
<path d="M7.75528 15.9671C8.19493 15.9671 8.55134 15.6107 8.55134 15.1711C8.55134 14.7314 8.19493 14.375 7.75528 14.375C7.31563 14.375 6.95923 14.7314 6.95923 15.1711C6.95923 15.6107 7.31563 15.9671 7.75528 15.9671Z" fill="#FFBD49"/>
<path d="M9.35792 16.3838C9.68086 16.3838 9.94265 16.122 9.94265 15.7991C9.94265 15.4761 9.68086 15.2144 9.35792 15.2144C9.03499 15.2144 8.77319 15.4761 8.77319 15.7991C8.77319 16.122 9.03499 16.3838 9.35792 16.3838Z" fill="#FFDB6F"/>
<path d="M19.7324 19.4248H11.2679C11.1353 19.4248 11.0283 19.5324 11.0283 19.6643C11.0283 19.7969 11.1353 19.9039 11.2679 19.9039H19.7317C19.8643 19.9039 19.9712 19.7963 19.9712 19.6643C19.9719 19.5318 19.8643 19.4248 19.7324 19.4248Z" fill="#6F6F6F"/>
<path d="M19.7324 20.3809H11.2679C11.1353 20.3809 11.0283 20.4885 11.0283 20.6204C11.0283 20.753 11.1353 20.8599 11.2679 20.8599H19.7317C19.8643 20.8599 19.9712 20.7523 19.9712 20.6204C19.9719 20.4878 19.8643 20.3809 19.7324 20.3809Z" fill="#6F6F6F"/>
<path d="M22.7696 10.5837V10.6657C22.7696 10.9958 22.4985 11.2603 22.1619 11.2465C21.8514 11.2268 21.6139 10.9492 21.6139 10.6322V9.45488C21.6139 9.17728 21.3829 8.96595 21.1053 8.97319C21.0987 8.97319 21.0987 8.97319 21.0922 8.97319C21.0922 8.97319 21.0922 8.97319 21.0856 8.97319C20.808 8.96663 20.577 9.17795 20.577 9.45488V10.52C20.577 10.8501 20.2929 11.1146 19.9628 11.0942C19.6523 11.0811 19.4148 10.797 19.4148 10.4865V9.56054C19.4148 9.28294 19.1838 9.05195 18.8997 9.05195H18.8603C18.5958 9.05195 18.3779 9.26982 18.3779 9.53432V10.7385C18.3779 11.0686 18.1003 11.3325 17.7636 11.3193C17.4532 11.2997 17.2222 11.0221 17.2222 10.7051V9.09065C17.2222 8.83339 16.9978 8.61551 16.7333 8.63518H16.6939C16.4229 8.63518 16.2057 8.85306 16.2057 9.11755V10.7681C16.2057 11.0851 15.9484 11.3489 15.6249 11.3489C15.3145 11.3489 15.0572 11.0982 15.0506 10.7878V9.40243C15.0506 9.08545 14.8131 8.80852 14.5027 8.78817C14.166 8.77506 13.895 9.03888 13.895 9.36897L13.8884 10.6487C13.8884 10.9788 13.618 11.2426 13.2807 11.2295C12.9762 11.2105 12.7452 10.9427 12.736 10.6395V9.1379C12.736 8.82616 12.5017 8.54724 12.19 8.52889C11.8559 8.51446 11.5803 8.7776 11.5803 9.10837V10.6814C11.5711 11.0037 11.3007 11.2603 10.9693 11.2471C10.6589 11.2275 10.4279 10.9499 10.4279 10.6329V9.45488C10.4279 9.17728 10.1903 8.96595 9.91271 8.97319C9.90615 8.97319 9.90615 8.97319 9.90615 8.97319C9.8996 8.97319 9.8996 8.97319 9.8996 8.97319C9.61544 8.96663 9.38445 9.17795 9.38445 9.45488V10.52C9.38445 10.8501 9.10684 11.1146 8.77675 11.0942C8.48929 11.0831 8.27534 10.8429 8.23863 10.5646C7.93345 11.1966 7.63093 11.8811 7.33691 12.6122C12.7681 13.04 18.225 13.04 23.6562 12.6122C23.3635 11.8791 23.0668 11.2032 22.7696 10.5837Z" fill="#5BAADF"/>
</g>
<defs>
<clipPath id="clip0">
<rect width="21" height="21" fill="white" transform="translate(5 5)"/>
</clipPath>
</defs>
</svg>
