<svg width="31" height="31" viewBox="0 0 31 31" xmlns="http://www.w3.org/2000/svg">
<rect width="31" height="31" rx="5"/>
<g clip-path="url(#clip0)">
<path d="M6.65527 11.8965H24.3449V23.0344H6.65527V11.8965Z" fill="#87CED9"/>
<path d="M6 9.93066H25V11.8962H6V9.93066Z" fill="#4398D1"/>
<path d="M22.3794 9.93066H25.0001V11.8962H22.3794V9.93066Z" fill="#3E8CC7"/>
<path d="M12.0605 23.0344H24.345V11.8965H23.1985L12.0605 23.0344Z" fill="#71C4D1"/>
<path d="M7.63794 7.96533H9.60346V9.93085H7.63794V7.96533Z" fill="#DEDEDE"/>
<path d="M6 23.0347H25V25.0002H6V23.0347Z" fill="#4398D1"/>
<path d="M21.3967 7.96533H23.3622V9.93085H21.3967V7.96533Z" fill="#DEDEDE"/>
<path d="M18.1206 6H12.224C11.8622 6 11.5688 6.29331 11.5688 6.65517V9.93103H12.8792V7.31034H18.1206V9.93103H19.4309V6.65517C19.4309 6.29331 19.1376 6 18.7757 6H18.1206Z" fill="#4398D1"/>
<path d="M8.62061 13.8623H22.7068V21.0692H8.62061V13.8623Z" fill="#DEDEDE"/>
<path d="M16.1552 17.1381L16.9742 13.8622L17.138 13.207L16.4828 13.8622L12.5518 17.7932L14.8449 17.8204L14.0269 21.0691L13.8621 21.7243L14.5173 21.0691L18.4483 17.1381H16.1552Z" fill="#FDB62F"/>
<path d="M11.569 15.4999H10.9139V14.8447H10.2587V15.4999H9.60352V16.1551H10.2587V16.8102H10.9139V16.1551H11.569V15.4999Z" fill="#DE4C3C"/>
<path d="M19.4312 15.5H21.3967V16.1552H19.4312V15.5Z" fill="#2A7DB8"/>
<path d="M11.5688 8.94824H12.8792V9.931H11.5688V8.94824Z" fill="#3E8CC7"/>
<path d="M18.1206 8.94824H19.431V9.931H18.1206V8.94824Z" fill="#3E8CC7"/>
<path d="M22.3792 23.0347H24.9998V25.0002H22.3792V23.0347Z" fill="#3E8CC7"/>
<path d="M6.65527 11.8965H24.3449V12.8792H6.65527V11.8965Z" fill="#71C4D1"/>
</g>
<defs>
<clipPath id="clip0">
<rect width="19" height="19" fill="white" transform="translate(6 6)"/>
</clipPath>
</defs>
</svg>
