<svg width="31" height="31" viewBox="0 0 31 31" xmlns="http://www.w3.org/2000/svg">
<rect width="31" height="31" rx="5"/>
<g clip-path="url(#clip0)">
<path d="M6.88208 24.0209L7.59386 23.3091L8.09723 23.8125L7.38546 24.5242L6.88208 24.0209Z" fill="#FA962A"/>
<path d="M5.92041 22.1368L11.7627 16.2944L15.1134 19.6451L9.27107 25.4874L5.92041 22.1368Z" fill="#FDB62F"/>
<path d="M23.1525 10.0353L21.3728 8.25567L22.0847 7.5438L23.1525 7.18787L23.5084 6.12007L24.726 5.4082L25.9999 6.68921L25.2881 7.89973L24.2203 8.25567L23.8643 9.32347L23.1525 10.0353Z" fill="#DEDEDE"/>
<path d="M11.0508 13.9502L12.8304 12.1705L19.2373 18.5774L17.4576 20.357L11.0508 13.9502Z" fill="#3E8CC7"/>
<path d="M12.8303 15.7305L14.61 13.9508L17.4575 16.7984L15.6779 18.578L12.8303 15.7305Z" fill="#4398D1"/>
<path d="M17.8135 17.1542L14.2542 13.5949L19.5931 8.25586H21.3728L23.1525 10.0355V11.8152L17.8135 17.1542Z" fill="#87CED9"/>
<path d="M10.6951 15.7305L11.763 14.6626L16.7461 19.6457L15.6782 20.7136L10.6951 15.7305Z" fill="#F46B27"/>
<path d="M13.3049 18.3403L14.3728 17.2725L16.7457 19.6453L15.6778 20.7132L13.3049 18.3403Z" fill="#DE4C3C"/>
<path d="M6.52797 25.5918L5.35588 24.4197C4.88137 23.9452 4.88137 23.1758 5.35588 22.7013L7.9517 20.1055L8.45499 20.6088L5.85917 23.2046C5.66274 23.4012 5.66274 23.7198 5.85917 23.9164L7.03126 25.0885L6.52797 25.5918Z" fill="#FDB62F"/>
<path d="M18.4514 9.39694L18.9548 8.89355L19.8448 9.78352L19.3414 10.2869L18.4514 9.39694Z" fill="#59B3C2"/>
<path d="M17.3835 10.4648L17.8869 9.96143L18.7769 10.8514L18.2735 11.3548L17.3835 10.4648Z" fill="#59B3C2"/>
<path d="M21.1211 12.0654L21.6245 11.562L22.5144 12.452L22.011 12.9554L21.1211 12.0654Z" fill="#59B3C2"/>
<path d="M20.0535 13.1347L20.5568 12.6313L21.4468 13.5213L20.9434 14.0247L20.0535 13.1347Z" fill="#59B3C2"/>
<path d="M16.3159 11.5327L16.8193 11.0293L17.7093 11.9193L17.2059 12.4226L16.3159 11.5327Z" fill="#59B3C2"/>
<path d="M18.9856 14.2021L19.489 13.6987L20.3789 14.5887L19.8756 15.0921L18.9856 14.2021Z" fill="#59B3C2"/>
<path d="M15.248 12.5991L15.7514 12.0957L16.6414 12.9857L16.138 13.489L15.248 12.5991Z" fill="#59B3C2"/>
<path d="M17.9177 15.27L18.4211 14.7666L19.3111 15.6566L18.8077 16.1599L17.9177 15.27Z" fill="#59B3C2"/>
<path d="M8.05591 20.0004L8.55929 19.4971L11.9034 22.8412L11.4 23.3446L8.05591 20.0004Z" fill="#FA962A"/>
<path d="M9.12354 18.9326L9.62691 18.4292L12.971 21.7733L12.4677 22.2767L9.12354 18.9326Z" fill="#FA962A"/>
<path d="M6.98804 21.0683L7.49142 20.5649L10.8355 23.9091L10.3322 24.4124L6.98804 21.0683Z" fill="#FA962A"/>
<path d="M10.1914 17.8652L10.6948 17.3618L14.0389 20.7059L13.5355 21.2093L10.1914 17.8652Z" fill="#FA962A"/>
<path d="M10.3247 22.27L10.8281 21.7666L11.9033 22.8418L11.3999 23.3452L10.3247 22.27Z" fill="#FA7D16"/>
<path d="M11.3926 21.2016L11.896 20.6982L12.9711 21.7734L12.4678 22.2768L11.3926 21.2016Z" fill="#FA7D16"/>
<path d="M9.25684 23.3379L9.76021 22.8345L10.8354 23.9097L10.332 24.413L9.25684 23.3379Z" fill="#FA7D16"/>
<path d="M12.46 20.1327L12.9633 19.6294L14.0385 20.7046L13.5351 21.208L12.46 20.1327Z" fill="#FA7D16"/>
</g>
<defs>
<clipPath id="clip0">
<rect width="21" height="21" fill="white" transform="translate(5 5)"/>
</clipPath>
</defs>
</svg>
