<svg width="31" height="31" viewBox="0 0 31 31" xmlns="http://www.w3.org/2000/svg">
<rect width="31" height="31" rx="5"/>
<path d="M22.1706 17.6718C22.1706 16.4721 21.1981 15.4995 19.9983 15.4995H11.309C10.1093 15.4995 9.13672 16.4721 9.13672 17.6718V20.2062L10.5849 20.9303H22.1706V17.6718Z" fill="#4398D1"/>
<path d="M19.9985 15.4995H18.5503C19.75 15.4995 20.7226 16.4721 20.7226 17.6718V20.9303H22.1708V17.6718C22.1708 16.4721 21.1983 15.4995 19.9985 15.4995Z" fill="#3E8CC7"/>
<path d="M14.2056 12.9653V15.4997L15.6538 17.672L17.102 15.4997V12.9653H14.2056Z" fill="#FEC9A3"/>
<path d="M14.2056 15.4995L15.6538 17.6718L17.102 15.4995H14.2056Z" fill="#EBEBEB"/>
<path d="M10.9473 18.396H11.6714V20.9304H10.9473V18.396Z" fill="#2A7DB8"/>
<path d="M19.6367 18.396H20.3608V20.9304H19.6367V18.396Z" fill="#2A7DB8"/>
<path d="M17.8263 15.4995H17.1022L15.654 17.6718L14.2058 15.4995H13.4817V16.9477L15.292 17.5513V20.9303H16.0161V17.5513L17.8263 16.9477V15.4995Z" fill="#2A7DB8"/>
<path d="M16.7402 19.1201H18.9126V19.8442H16.7402V19.1201Z" fill="#2A7DB8"/>
<path d="M14.2056 12.9653V14.4327C15.1169 14.8899 16.1906 14.8899 17.102 14.4327V12.9653H14.2056Z" fill="#F0B081"/>
<path d="M12.3955 8.62061V10.7929C12.3955 12.5925 13.8544 14.0514 15.654 14.0514C17.4536 14.0514 18.9125 12.5925 18.9125 10.7929V8.62061H12.3955Z" fill="#FEC9A3"/>
<path d="M17.4641 8.62061V10.7929C17.4631 12.3127 16.4115 13.63 14.9297 13.9678C16.6785 14.3723 18.4242 13.2825 18.8287 11.5337C18.8849 11.2908 18.9129 11.0422 18.9123 10.7929V8.62061H17.4641Z" fill="#F7BB8F"/>
<path d="M18.9125 8.25848V6.81027C18.9125 5.8105 18.102 5 17.1022 5H14.2058C13.206 5 12.3955 5.8105 12.3955 6.81027V8.98259H21.0848V8.25848H18.9125Z" fill="#4398D1"/>
<path d="M15.2917 9.70654H16.0159V11.5168H15.2917V9.70654Z" fill="#F0B081"/>
<path d="M12.3955 10.7929H10.5852V8.62061H12.3955V10.7929Z" fill="#87CED9"/>
<path d="M12.1945 13.9906L11.1084 13.2665C11.0077 13.1994 10.9473 13.0863 10.9473 12.9653V10.793H11.6714V12.7716L12.5964 13.3871L12.1945 13.9906Z" fill="#87CED9"/>
<path d="M22.5329 20.9306H25.8489C25.0508 19.0991 22.9191 18.2615 21.0877 19.0597C20.2502 19.4247 19.5818 20.0931 19.2168 20.9306H12.0909C11.291 19.0979 9.15702 18.2607 7.32439 19.0605C5.49172 19.8603 4.65448 21.9944 5.4543 23.827C6.25412 25.6596 8.38815 26.4969 10.2208 25.697C11.0577 25.3318 11.7256 24.6638 12.0908 23.827H19.2168C20.0149 25.6584 22.1466 26.496 23.978 25.6979C24.8155 25.3329 25.4839 24.6645 25.8489 23.827H22.5328V20.9306H22.5329ZM10.5851 23.4649L8.77482 24.5511L6.93451 23.5855L6.96456 21.2926L8.77482 20.2064L10.5851 21.2926V23.4649Z" fill="#87CED9"/>
<path d="M17.4641 6.81027V8.25848H18.9123V6.81027C18.9123 5.8105 18.1018 5 17.102 5H15.6538C16.6536 5 17.4641 5.8105 17.4641 6.81027Z" fill="#3E8CC7"/>
<path d="M19.6362 8.2583H21.0844V8.98241H19.6362V8.2583Z" fill="#3E8CC7"/>
<path d="M22.5328 20.9303H25.8489C25.0507 19.0989 22.919 18.2613 21.0876 19.0595C20.2501 19.4245 19.5818 20.0929 19.2168 20.9303H17.4641L14.5676 23.8268H19.2168C20.0149 25.6582 22.1466 26.4958 23.978 25.6976C24.8155 25.3326 25.4839 24.6642 25.8489 23.8268H22.5328V20.9303Z" fill="#71C4D1"/>
<path d="M12.0332 22.0166H19.2743V22.7407H12.0332V22.0166Z" fill="#59B3C2"/>
<path d="M10.9473 10.793H11.6714V11.5171H10.9473V10.793Z" fill="#71C4D1"/>
</svg>
