<svg width="31" height="31" viewBox="0 0 31 31" xmlns="http://www.w3.org/2000/svg">
<rect width="31" height="31" rx="5"/>
<g clip-path="url(#clip0)">
<path d="M7.17241 20.2069H5.72414V16.9483L5 15.8621V14.7759L5.72414 13.6897H7.17241V20.2069Z" fill="#DE4C3C"/>
<path d="M7.17236 16.2241H8.62064V17.6724H7.17236V16.2241Z" fill="#D64333"/>
<path d="M11.8792 8.62061H19.1205V10.0689H11.8792V8.62061Z" fill="#4398D1"/>
<path d="M17.3103 8.62061H19.1206V10.0689H17.3103V8.62061Z" fill="#3E8CC7"/>
<path d="M14.7759 10.0688H16.2242V11.5171H14.7759V10.0688Z" fill="#3E8CC7"/>
<path d="M20.2068 13.6897L18.7586 11.5173H12.2413L10.793 13.6897H8.62061V20.207H10.793L12.2413 22.3794H22.7413V20.207V13.6897H20.2068Z" fill="#4398D1"/>
<path d="M20.2069 13.6896L19.5679 12.7312C17.6043 16.1808 14.8181 19.0913 11.4575 21.2036L12.2414 22.3793H22.7414V13.6896H20.2069Z" fill="#3E8CC7"/>
<path d="M26 20.9311L25.2759 21.6552H24.1897V14.4138H25.2759L26 15.138V20.9311Z" fill="#4398D1"/>
<path d="M22.7415 16.5862H24.1897V18.7586H22.7415V16.5862Z" fill="#3E8CC7"/>
<path d="M18.3966 16.5863H16.2242L16.9483 13.3276L12.6035 17.3104H14.7759L14.0518 20.569L18.3966 16.5863Z" fill="#FDB62F"/>
<path d="M20.9309 13.6897H21.655V22.3793H20.9309V13.6897Z" fill="#2A7DB8"/>
<path d="M9.70679 16.2241H10.4309V19.1207H9.70679V16.2241Z" fill="#60AADB"/>
<path d="M9.70679 14.7759H10.4309V15.5H9.70679V14.7759Z" fill="#60AADB"/>
</g>
<defs>
<clipPath id="clip0">
<rect width="21" height="21" fill="white" transform="translate(5 5)"/>
</clipPath>
</defs>
</svg>
