<svg width="31" height="31" viewBox="0 0 31 31" xmlns="http://www.w3.org/2000/svg">
<rect width="31" height="31" rx="5"/>
<g clip-path="url(#clip0)">
<path d="M24.5823 21.3851H6.41775C5.63476 21.3851 5 20.7504 5 19.9674V19.6883C5 18.9053 5.63476 18.2705 6.41775 18.2705H24.5823C25.3653 18.2705 26 18.9053 26 19.6883V19.9674C26 20.7504 25.3653 21.3851 24.5823 21.3851Z" fill="#E94444"/>
<path d="M25.9999 19.6881V19.9673C25.9999 20.7505 25.3654 21.3854 24.5823 21.3854H23.7527C24.5358 21.3854 25.1703 20.7505 25.1703 19.9673V19.6881C25.1703 18.9054 24.5358 18.2705 23.7527 18.2705H24.5823C25.3654 18.2705 25.9999 18.9054 25.9999 19.6881Z" fill="#D83131"/>
<path d="M24.5824 21.3853H15.5001H6.41785C6.41785 21.3853 5.79144 24.41 9.35611 25.6C9.96675 25.8038 10.6042 25.8987 11.2435 25.8987H15.5001H19.7567C20.396 25.8987 21.0335 25.8038 21.6442 25.6C25.2088 24.41 24.5824 21.3853 24.5824 21.3853Z" fill="#FDB62F"/>
<path d="M21.6438 25.6002C21.033 25.8042 20.3956 25.8992 19.7564 25.8992H18.7942C19.4337 25.8992 20.0712 25.8042 20.6819 25.6002C24.2463 24.4102 23.6198 21.3857 23.6198 21.3857H24.5821C24.5821 21.3857 25.2086 24.4102 21.6438 25.6002Z" fill="#F2A40F"/>
<path d="M24.6154 18.8355C24.6154 19.5433 23.7929 19.927 23.2461 19.4776C23.0213 19.2929 22.7559 19.1465 22.3351 19.1465C21.1951 19.1465 21.1951 20.0495 20.0551 20.0495C18.9151 20.0495 18.9151 19.1465 17.7751 19.1465C16.6351 19.1465 16.6351 20.0495 15.4952 20.0495C14.3552 20.0495 14.3552 19.1465 13.2153 19.1465C12.0752 19.1465 12.0752 20.0495 10.9352 20.0495C9.79525 20.0495 9.79525 19.1465 8.65527 19.1465C8.23474 19.1465 7.96936 19.2928 7.74462 19.4774C7.19774 19.9269 6.37524 19.5432 6.37524 18.8354V17.1602H24.6154V18.8355H24.6154Z" fill="#BBEC6C"/>
<path d="M24.6157 17.1602V18.8354C24.6157 19.4978 23.8955 19.8762 23.3552 19.5539C23.5939 19.4145 23.7654 19.159 23.7654 18.8354V17.1602H24.6157Z" fill="#A2E62E"/>
<path d="M6.38452 15.8179V17.1726H8.33995C8.74674 17.1726 9.07653 17.5024 9.07653 17.9092V21.8109C9.07653 22.331 9.49816 22.7526 10.0183 22.7526C10.5384 22.7526 10.96 22.331 10.96 21.8109V17.9092C10.96 17.5024 11.2897 17.1726 11.6965 17.1726H24.6156V15.8179H6.38452Z" fill="#FEE45A"/>
<path d="M23.7654 15.8179H24.6157V17.1726H23.7654V15.8179Z" fill="#FEDF30"/>
<path d="M24.5823 15.9105H6.41775C5.63476 15.9105 5 15.2758 5 14.4928V14.2136C5 13.4307 5.63476 12.7959 6.41775 12.7959H24.5823C25.3653 12.7959 26 13.4307 26 14.2136V14.4928C26 15.2758 25.3653 15.9105 24.5823 15.9105Z" fill="#9E5528"/>
<path d="M25.9999 14.2135V14.4927C25.9999 15.2759 25.3654 15.9104 24.5823 15.9104H23.7527C24.5358 15.9104 25.1703 15.2759 25.1703 14.4927V14.2135C25.1703 13.4308 24.5358 12.7959 23.7527 12.7959H24.5823C25.3654 12.7959 25.9999 13.4308 25.9999 14.2135Z" fill="#904D24"/>
<path d="M15.4999 5.10156C8.41893 5.20404 6.03982 9.0451 5.25441 11.2769C4.98526 12.0417 5.5591 12.842 6.36981 12.842H15.4999H24.6299C25.4466 12.842 26.0131 12.0336 25.7407 11.2636C24.9505 9.02989 22.5669 5.20383 15.4999 5.10156Z" fill="#FDB62F"/>
<path d="M24.63 12.8423H24.5291C24.8041 12.5356 24.9173 12.0891 24.764 11.6549C23.9736 9.42073 21.59 5.59496 14.523 5.49273C12.6948 5.5189 11.1796 5.79476 9.92505 6.22771C11.3477 5.57423 13.1692 5.13534 15.5 5.10156C22.567 5.2042 24.9507 9.03001 25.741 11.2637C26.013 12.0338 25.4465 12.8423 24.63 12.8423Z" fill="#F2A40F"/>
<path d="M12.5772 8.34904C12.528 8.34904 12.478 8.33714 12.4317 8.31212C12.2827 8.2316 12.2272 8.0455 12.3077 7.8965L12.5825 7.38797C12.663 7.23896 12.8491 7.18347 12.9981 7.26399C13.1472 7.3445 13.2026 7.5306 13.1221 7.67961L12.8473 8.18813C12.7918 8.29077 12.6863 8.34904 12.5772 8.34904Z" fill="#E57917"/>
<path d="M15.4961 8.3838C15.3268 8.3838 15.1895 8.24648 15.1895 8.07711V7.49907C15.1895 7.3297 15.3268 7.19238 15.4961 7.19238C15.6655 7.19238 15.8028 7.3297 15.8028 7.49907V8.07711C15.8028 8.24648 15.6655 8.3838 15.4961 8.3838Z" fill="#E57917"/>
<path d="M18.4227 8.34449C18.3169 8.34449 18.214 8.28969 18.1571 8.1916L17.8671 7.69153C17.7821 7.54502 17.832 7.35737 17.9786 7.2724C18.1251 7.18742 18.3127 7.23731 18.3977 7.38382L18.6877 7.88389C18.7727 8.0304 18.7228 8.21805 18.5763 8.30302C18.5278 8.33116 18.475 8.34449 18.4227 8.34449Z" fill="#E57917"/>
</g>
<defs>
<clipPath id="clip0">
<rect width="21" height="21" fill="white" transform="translate(5 5)"/>
</clipPath>
</defs>
</svg>
