<svg width="31" height="31" viewBox="0 0 31 31" xmlns="http://www.w3.org/2000/svg">
<rect width="31" height="31" rx="5"/>
<g clip-path="url(#clip0)">
<path d="M9.25858 7.17236H20.1206C20.9205 7.17236 21.5689 7.82078 21.5689 8.62064V24.5517C21.5689 25.3515 20.9205 25.9999 20.1206 25.9999H9.25858C8.45872 25.9999 7.8103 25.3515 7.8103 24.5517V8.62064C7.8103 7.82078 8.45872 7.17236 9.25858 7.17236Z" fill="#4398D1"/>
<path d="M11.4312 26.0002H20.1208C20.9207 26.0002 21.5691 25.3518 21.5691 24.5519V15.8623L11.4312 26.0002Z" fill="#3E8CC7"/>
<path d="M17.2241 21.6553H20.1207V24.5518H17.2241V21.6553Z" fill="#D64333"/>
<path d="M20.1206 8.62061H9.25854V24.5516H17.2241L20.1206 21.6551V8.62061Z" fill="#87CED9"/>
<path d="M24.1034 11.8794L21.5689 14.4139L20.1207 15.8622L17.5862 18.3966L17.2241 19.8449L18.6724 19.4828L20.1207 18.0346L21.5689 16.5863L25.1896 12.9656L24.1034 11.8794Z" fill="#FDB62F"/>
<path d="M10.7068 16.9482H16.862V17.6724H10.7068V16.9482Z" fill="#59B3C2"/>
<path d="M10.7068 18.3965H15.7757V19.1206H10.7068V18.3965Z" fill="#59B3C2"/>
<path d="M10.7068 19.8447H15.7757V20.5689H10.7068V19.8447Z" fill="#59B3C2"/>
<path d="M10.7068 21.293H15.7757V22.0171H10.7068V21.293Z" fill="#59B3C2"/>
<path d="M19.0344 13.0664L17.7816 12.6489L16.6498 11.5171H13.0914L11.969 12.6395L10.3447 13.0447V15.4998H11.4976C11.6938 16.063 12.3093 16.3604 12.8723 16.1642C13.1836 16.0558 13.4283 15.8111 13.5367 15.4998H15.8424C16.0386 16.063 16.6541 16.3604 17.2172 16.1642C17.5284 16.0558 17.7731 15.8111 17.8816 15.4998H19.0344V13.0664ZM12.5171 15.4998C12.3172 15.4998 12.1551 15.3377 12.1551 15.1378C12.1551 14.9378 12.3172 14.7757 12.5171 14.7757C12.7171 14.7757 12.8792 14.9378 12.8792 15.1378C12.8792 15.3377 12.7171 15.4998 12.5171 15.4998ZM16.862 15.4998C16.662 15.4998 16.4999 15.3377 16.4999 15.1378C16.4999 14.9378 16.662 14.7757 16.862 14.7757C17.0619 14.7757 17.224 14.9378 17.224 15.1378C17.224 15.3377 17.0619 15.4998 16.862 15.4998ZM18.3102 14.7757H17.8863C17.8819 14.7634 17.8754 14.7525 17.8707 14.7395C17.8627 14.7192 17.8533 14.7 17.8443 14.6805C17.8255 14.6404 17.8043 14.6015 17.7809 14.5639C17.77 14.5462 17.7595 14.5277 17.7472 14.5114C17.7169 14.4686 17.6835 14.4281 17.6473 14.3901C17.6397 14.3821 17.6332 14.3731 17.6256 14.3655C17.5808 14.3213 17.5323 14.2809 17.4807 14.2449C17.4663 14.2351 17.4503 14.2268 17.4355 14.2174C17.3961 14.1926 17.3552 14.1704 17.3131 14.1508C17.2932 14.1417 17.2729 14.1338 17.2523 14.1258C17.2098 14.1094 17.1662 14.0958 17.1219 14.0852C17.102 14.0802 17.0828 14.0744 17.0626 14.0708C16.9312 14.0438 16.7957 14.0438 16.6643 14.0708C16.644 14.0744 16.6248 14.0802 16.6049 14.0852C16.5606 14.0958 16.5171 14.1094 16.4746 14.1258C16.4539 14.1338 16.434 14.1417 16.4141 14.1508C16.3718 14.1703 16.3308 14.1926 16.2913 14.2174C16.2765 14.2268 16.2606 14.2351 16.2461 14.2449C16.1945 14.2809 16.146 14.3213 16.1013 14.3655C16.0937 14.3731 16.0871 14.3821 16.0795 14.3901C16.0434 14.4281 16.01 14.4686 15.9796 14.5114C15.9677 14.5284 15.9568 14.5476 15.9459 14.5639C15.9225 14.6015 15.9013 14.6404 15.8826 14.6805C15.8732 14.7 15.8641 14.7192 15.8561 14.7395C15.8514 14.7514 15.8449 14.7623 15.8406 14.7757H13.5414C13.5371 14.7634 13.5306 14.7525 13.5259 14.7395C13.5179 14.7192 13.5085 14.7 13.4994 14.6805C13.4807 14.6404 13.4595 14.6015 13.4361 14.5639C13.4252 14.5462 13.4147 14.5277 13.4024 14.5114C13.372 14.4686 13.3386 14.4281 13.3025 14.3901C13.2949 14.3821 13.2883 14.3731 13.2807 14.3655C13.236 14.3213 13.1875 14.2809 13.1359 14.2449C13.1214 14.2351 13.1055 14.2268 13.0907 14.2174C13.0513 14.1926 13.0104 14.1704 12.9683 14.1508C12.9484 14.1417 12.9281 14.1338 12.9075 14.1258C12.865 14.1094 12.8214 14.0958 12.7771 14.0852C12.7572 14.0802 12.738 14.0744 12.7177 14.0708C12.5863 14.0438 12.4508 14.0438 12.3195 14.0708C12.2992 14.0744 12.28 14.0802 12.2601 14.0852C12.2158 14.0958 12.1722 14.1094 12.1297 14.1258C12.1091 14.1338 12.0892 14.1417 12.0693 14.1508C12.0269 14.1703 11.9859 14.1926 11.9465 14.2174C11.9317 14.2268 11.9157 14.2351 11.9013 14.2449C11.8497 14.2809 11.8012 14.3213 11.7564 14.3655C11.7488 14.3731 11.7423 14.3821 11.7347 14.3901C11.6985 14.4281 11.6651 14.4686 11.6348 14.5114C11.6228 14.5284 11.612 14.5476 11.6011 14.5639C11.5777 14.6015 11.5565 14.6404 11.5377 14.6805C11.5283 14.7 11.5193 14.7192 11.5113 14.7395C11.5066 14.7514 11.5001 14.7623 11.4957 14.7757H11.0689V13.6102L12.3401 13.2923L13.3901 12.2423H16.3489L17.3895 13.2829L18.3092 13.5896L18.3102 14.7757Z" fill="#59B3C2"/>
<path d="M10.707 10.069H18.6725L18.1294 8.62069L17.5863 7.17241H15.776V6.08621C15.776 5.4863 15.2897 5 14.6898 5C14.0899 5 13.6036 5.4863 13.6036 6.08621V7.17241H11.7932L11.2501 8.62069L10.707 10.069Z" fill="#DE4C3C"/>
<path d="M22.7612 13.2215L23.2733 12.7095L24.3596 13.7958L23.8475 14.3078L22.7612 13.2215Z" fill="#FA962A"/>
<path d="M17.2241 24.5518L20.1207 21.6553H17.2241V24.5518Z" fill="#59B3C2"/>
<path d="M18.1294 8.62064L17.5863 7.17236H16.8621L13.9656 10.0689H18.6725L18.1294 8.62064Z" fill="#D64333"/>
</g>
<defs>
<clipPath id="clip0">
<rect width="21" height="21" fill="white" transform="translate(6 5)"/>
</clipPath>
</defs>
</svg>
