<svg width="31" height="31" viewBox="0 0 31 31" xmlns="http://www.w3.org/2000/svg">
<rect width="31" height="31" rx="5"/>
<g clip-path="url(#clip0)">
<path d="M5 24.4637C5.00005 24.0563 5.16194 23.6656 5.45005 23.3775L11.8793 16.9482L14.0517 19.1207L7.62247 25.5499C7.33439 25.838 6.94368 25.9999 6.53626 26C5.68802 26.0001 5.00018 25.3127 5 24.4644C5 24.4642 5 24.4639 5 24.4637Z" fill="#DEDEDE"/>
<path d="M13.1464 18.2153L7.06621 24.2956C6.92487 24.4369 6.92487 24.6661 7.06621 24.8075L7.7154 25.4567L14.0516 19.1205L13.1464 18.2153Z" fill="#C7C7C7"/>
<path d="M14.008 19.0769L11.9232 16.9921C11.4315 16.5003 11.1552 15.8334 11.1553 15.1379C11.1552 14.4425 11.4315 13.7756 11.9232 13.2838L19.4391 5.76795C19.9308 5.27621 20.5978 4.99995 21.2932 5C21.9886 4.99995 22.6556 5.27621 23.1474 5.76795L25.2322 7.85274C25.7239 8.34452 26.0001 9.01145 26.0001 9.7069C26.0001 10.4023 25.7239 11.0693 25.2322 11.5611L17.7163 19.0769C17.2245 19.5686 16.5576 19.8449 15.8622 19.8448C15.1667 19.8449 14.4998 19.5686 14.008 19.0769Z" fill="#4398D1"/>
<path d="M15.8619 18.3966C15.5505 18.3975 15.2517 18.2737 15.0321 18.053L12.9473 15.9682C12.4888 15.5099 12.4886 14.7666 12.9469 14.3081C12.947 14.308 12.9471 14.3079 12.9473 14.3077L20.4631 6.79189C20.9215 6.33369 21.6644 6.33369 22.1228 6.79189L24.2076 8.87668C24.6661 9.33497 24.6663 10.0782 24.208 10.5367C24.2079 10.5369 24.2078 10.537 24.2076 10.5371L16.6918 18.053C16.4722 18.2737 16.1734 18.3975 15.8619 18.3966Z" fill="#3E8CC7"/>
<path d="M18.5024 9.96372L19.0145 9.45166L21.5488 11.986L21.0368 12.4981L18.5024 9.96372Z" fill="#2A7DB8"/>
<path d="M15.606 12.8592L16.118 12.3472L18.6524 14.8815L18.1403 15.3936L15.606 12.8592Z" fill="#2A7DB8"/>
<path d="M22.4543 8.54574C22.0127 8.1052 21.2978 8.1052 20.8561 8.54574L20.313 9.08885C20.1717 9.23023 20.1717 9.45942 20.313 9.60081L21.3992 10.687C21.5406 10.8284 21.7698 10.8284 21.9112 10.687L22.4543 10.1439C22.8956 9.70319 22.8961 8.98819 22.4554 8.54687C22.455 8.54647 22.4547 8.5461 22.4543 8.54574ZM21.9424 9.63195L21.6552 9.91907L21.081 9.34483L21.3681 9.05771C21.527 8.89985 21.7835 8.89985 21.9424 9.05771C22.1009 9.21584 22.1013 9.47264 21.9431 9.63118C21.9428 9.63145 21.9426 9.63168 21.9424 9.63195Z" fill="#DEDEDE"/>
<path d="M18.7789 11.1572L18.7383 11.8814C18.9621 11.8943 19.1331 12.0861 19.1202 12.3099C19.1144 12.4094 19.0723 12.5032 19.0019 12.5736L18.7148 12.8608L18.1406 12.2865L18.4277 11.9994L17.9157 11.4874L17.3726 12.0305C17.2313 12.1719 17.2313 12.4011 17.3726 12.5425L18.4588 13.6287C18.6002 13.7701 18.8294 13.7701 18.9708 13.6287L19.5139 13.0856C19.9552 12.6446 19.9554 11.9293 19.5144 11.488C19.3181 11.2916 19.0562 11.1743 18.7789 11.1587V11.1572Z" fill="#DEDEDE"/>
<path d="M15.7559 14.5197C15.6881 14.4518 15.596 14.4136 15.5 14.4136V13.6895H14.7758V14.4136H14.4138C14.3177 14.4136 14.2257 14.4518 14.1578 14.5197L13.7957 14.8817C13.6544 15.0231 13.6544 15.2523 13.7957 15.3937L15.6061 17.2041C15.7474 17.3454 15.9766 17.3454 16.118 17.2041L16.4801 16.842C16.548 16.7741 16.5862 16.682 16.5862 16.586V15.4998C16.5862 15.4038 16.548 15.3117 16.4801 15.2438L15.7559 14.5197ZM15.862 16.4361L14.5637 15.1377H15.3501L15.862 15.6497V16.4361Z" fill="#DEDEDE"/>
</g>
<defs>
<clipPath id="clip0">
<rect width="21" height="21" fill="white" transform="translate(5 5)"/>
</clipPath>
</defs>
</svg>
