<svg width="31" height="31" viewBox="0 0 31 31" xmlns="http://www.w3.org/2000/svg">
<rect width="31" height="31" rx="5"/>
<g clip-path="url(#clip0)">
<path d="M21.5702 7.69601L17.4734 6.3303C16.8373 6.11823 16.144 6.15811 15.5364 6.44168L11.569 8.2932H7.63794V23.0346C7.63794 24.1201 8.51792 25.0001 9.60346 25.0001H21.3966C22.4821 25.0001 23.3621 24.1201 23.3621 23.0346V10.1821C23.362 9.0541 22.6402 8.05271 21.5702 7.69601ZM16.0608 8.38754L16.1224 8.32595C16.342 8.10659 16.6694 8.03563 16.9601 8.14447L20.7348 9.55997C21.1443 9.71353 21.3517 10.1699 21.1981 10.5794C21.1717 10.6498 21.1354 10.7161 21.0903 10.7763C20.8826 11.0529 20.5195 11.1627 20.1933 11.0475L16.357 9.69395C15.9447 9.5483 15.7285 9.09595 15.8742 8.68364C15.9135 8.57226 15.9773 8.47108 16.0608 8.38754ZM21.7241 20.5777C21.7241 21.03 21.3575 21.3966 20.9052 21.3966C20.4529 21.3966 20.0862 21.03 20.0862 20.5777V15.1725C20.0862 14.7202 20.4529 14.3535 20.9052 14.3535C21.3575 14.3535 21.7241 14.7202 21.7241 15.1725V20.5777Z" fill="#4398D1"/>
<path d="M7.63794 6H11.569V8.2931H7.63794V6Z" fill="#DE4C3C"/>
<path d="M8.62085 6H9.27602V6.98276H8.62085V6Z" fill="#D64333"/>
<path d="M9.93115 6H10.5863V6.98276H9.93115V6Z" fill="#D64333"/>
<path d="M21.5702 7.69607L20.5121 7.34326C20.3354 8.00826 20.1459 8.64837 19.9434 9.26357L20.7336 9.5584C21.143 9.71196 21.3504 10.1684 21.1968 10.5778C21.1704 10.6482 21.1341 10.7145 21.089 10.7747C20.8813 11.0513 20.5182 11.1612 20.192 11.046L19.4058 10.7692C16.3518 18.7151 11.2162 22.2619 7.80176 23.8209C8.1144 24.5372 8.82182 25.0003 9.60348 25.0002H21.3966C22.4821 25.0002 23.3621 24.1202 23.3621 23.0346V10.1821C23.3621 9.05416 22.6403 8.05277 21.5702 7.69607ZM21.7242 20.5777C21.7242 21.0301 21.3575 21.3967 20.9052 21.3967C20.4529 21.3967 20.0862 21.0301 20.0862 20.5777V15.1726C20.0862 14.7203 20.4529 14.3536 20.9052 14.3536C21.3575 14.3536 21.7242 14.7203 21.7242 15.1726V20.5777Z" fill="#3E8CC7"/>
<path d="M9.60352 12.552V21.7245C9.60352 22.4481 10.1902 23.0348 10.9139 23.0348H17.138C17.8617 23.0348 18.4483 22.4481 18.4483 21.7245V13.4693C18.4483 12.9183 18.1036 12.4262 17.5858 12.2379L14.8449 11.2417H10.9139C10.1902 11.2417 9.60352 11.8284 9.60352 12.552Z" fill="#87CED9"/>
<path d="M13.8051 13.8623L12.0666 17.7255C11.6345 18.6856 12.0626 19.8141 13.0226 20.2461C13.2686 20.3568 13.5353 20.414 13.8051 20.414C14.8579 20.4142 15.7114 19.5608 15.7115 18.508C15.7116 18.2382 15.6543 17.9715 15.5436 17.7255L13.8051 13.8623Z" fill="#FA962A"/>
</g>
<defs>
<clipPath id="clip0">
<rect width="19" height="19" fill="white" transform="translate(6 6)"/>
</clipPath>
</defs>
</svg>
