<svg width="31" height="31" viewBox="0 0 31 31" xmlns="http://www.w3.org/2000/svg">
<rect width="31" height="31" rx="5"/>
<path d="M25.0172 11.9178L23.431 10.3315H19.4655L17.8792 11.9178L15.8965 12.3143V14.6936H26.9999V12.3143L25.0172 11.9178Z" fill="#DE4C3C"/>
<path d="M24.3827 11.2832L18.3198 14.6935H27V12.3142L25.0172 11.9177L24.3827 11.2832Z" fill="#D64333"/>
<path d="M10.3881 10.3315C10.114 10.331 9.85915 10.4719 9.71391 10.7043L7.96552 13.504L5.27531 14.0421C4.53386 14.1903 4.0001 14.8412 4 15.5974V18.6591H14.3103V10.3315H10.3881Z" fill="#4398D1"/>
<path d="M4 16.2798H14.3103V18.6591H4V16.2798Z" fill="#3E8CC7"/>
<path d="M10.7413 11.9175L9.94824 13.5037H12.7241V11.9175H10.7413Z" fill="#87CED9"/>
<path d="M4 15.4866H6.37931V17.0728H4V15.4866Z" fill="#DEDEDE"/>
<path d="M11.5344 14.6936H12.7241V15.4867H11.5344V14.6936Z" fill="#2A7DB8"/>
<path d="M18.2758 15.883C18.9329 15.883 19.4655 15.3503 19.4655 14.6933C19.4655 14.0363 18.9329 13.5037 18.2758 13.5037C17.6188 13.5037 17.0862 14.0363 17.0862 14.6933C17.0862 15.3503 17.6188 15.883 18.2758 15.883Z" fill="#696969"/>
<path d="M24.6206 15.883C25.2776 15.883 25.8102 15.3503 25.8102 14.6933C25.8102 14.0363 25.2776 13.5037 24.6206 13.5037C23.9635 13.5037 23.4309 14.0363 23.4309 14.6933C23.4309 15.3503 23.9635 15.883 24.6206 15.883Z" fill="#696969"/>
<path d="M8.36191 20.6418C9.45696 20.6418 10.3447 19.7541 10.3447 18.659C10.3447 17.564 9.45696 16.6763 8.36191 16.6763C7.26686 16.6763 6.37915 17.564 6.37915 18.659C6.37915 19.7541 7.26686 20.6418 8.36191 20.6418Z" fill="#696969"/>
<path d="M7.96558 18.2625H8.75868V19.0556H7.96558V18.2625Z" fill="#DEDEDE"/>
<path d="M14.3103 16.6763V18.659H25.8103L27 17.8659V16.6763H14.3103Z" fill="#4398D1"/>
<path d="M21.8448 20.6418C22.9399 20.6418 23.8276 19.7541 23.8276 18.659C23.8276 17.564 22.9399 16.6763 21.8448 16.6763C20.7498 16.6763 19.8621 17.564 19.8621 18.659C19.8621 19.7541 20.7498 20.6418 21.8448 20.6418Z" fill="#696969"/>
<path d="M21.4482 18.2625H22.2414V19.0556H21.4482V18.2625Z" fill="#DEDEDE"/>
<path d="M14.3103 16.6763H15.1034V18.659H14.3103V16.6763Z" fill="#2A7DB8"/>
<path d="M9.92028 17.4463C9.72755 18.9535 8.34954 20.0191 6.8423 19.8265C6.81365 19.8228 6.78509 19.8187 6.75659 19.8141C7.38904 20.7038 8.62291 20.9123 9.51257 20.2799C10.4022 19.6474 10.6108 18.4135 9.97832 17.5239C9.95963 17.4975 9.94025 17.4717 9.92028 17.4463Z" fill="#565657"/>
<path d="M23.4029 17.4692C23.2102 18.9764 21.8322 20.0421 20.325 19.8494C20.2963 19.8457 20.2678 19.8416 20.2393 19.837C20.8717 20.7267 22.1056 20.9352 22.9952 20.3028C23.8849 19.6703 24.0934 18.4365 23.461 17.5468C23.4423 17.5205 23.4229 17.4946 23.4029 17.4692Z" fill="#565657"/>
<path d="M10.9397 13.5037H12.7242V11.9175H12.5259L10.9397 13.5037Z" fill="#71C4D1"/>
<path d="M4 16.2798H6.37931V17.0729H4V16.2798Z" fill="#C7C7C7"/>
</svg>
