<svg width="31" height="31" viewBox="0 0 31 31" xmlns="http://www.w3.org/2000/svg">
<rect width="31" height="31" rx="5"/>
<g clip-path="url(#clip0)">
<path d="M16.5613 6.47796V5.06274H14.4384V6.47796L10.9004 8.9546H20.0993L16.5613 6.47796Z" fill="#4398D1"/>
<path d="M23.6377 23.8145H7.36264C6.97182 23.8145 6.65503 23.4977 6.65503 23.1069V19.4655C6.65499 18.8869 7.00724 18.3665 7.5445 18.1515L8.42405 17.7998H22.5763L23.4558 18.1515C23.9931 18.3665 24.3453 18.8869 24.3453 19.4655V23.1069C24.3453 23.4977 24.0285 23.8145 23.6377 23.8145Z" fill="#DE4C3C"/>
<path d="M23.4559 18.1515L22.5764 17.7998H21.1611L22.0407 18.1515C22.5779 18.3665 22.9302 18.8869 22.9302 19.4655V23.1069C22.9302 23.4977 22.6134 23.8145 22.2225 23.8145H23.6378C24.0286 23.8145 24.3454 23.4977 24.3454 23.1069V19.4655C24.3454 18.8869 23.9932 18.3665 23.4559 18.1515Z" fill="#D64333"/>
<path d="M22.576 17.7998H8.42383L10.8297 14.4907C11.0962 14.1243 11.522 13.9077 11.975 13.908H19.0249C19.4779 13.9077 19.9036 14.1243 20.1701 14.4907L22.576 17.7998Z" fill="#87CED9"/>
<path d="M8.77768 19.2151H9.48529C9.87611 19.2151 10.1929 19.5319 10.1929 19.9227V20.2765C10.1929 20.6673 9.87611 20.9841 9.48529 20.9841H8.77768C8.38686 20.9841 8.07007 20.6673 8.07007 20.2765V19.9227C8.07007 19.5319 8.38686 19.2151 8.77768 19.2151Z" fill="#EBEBEB"/>
<path d="M21.5145 19.2151H22.2221C22.6129 19.2151 22.9297 19.5319 22.9297 19.9227V20.2765C22.9297 20.6673 22.6129 20.9841 22.2221 20.9841H21.5145C21.1237 20.9841 20.8069 20.6673 20.8069 20.2765V19.9227C20.8069 19.5319 21.1237 19.2151 21.5145 19.2151Z" fill="#EBEBEB"/>
<path d="M12.3158 19.2151H18.6843C19.0751 19.2151 19.3919 19.5319 19.3919 19.9227V20.2765C19.3919 20.6673 19.0751 20.9841 18.6843 20.9841H12.3158C11.9249 20.9841 11.6082 20.6673 11.6082 20.2765V19.9227C11.6082 19.5319 11.9249 19.2151 12.3158 19.2151Z" fill="#BF362C"/>
<path d="M6.65503 22.3992H24.3453V23.1068C24.3453 23.4976 24.0285 23.8144 23.6377 23.8144H7.36264C6.97182 23.8144 6.65503 23.4976 6.65503 23.1068V22.3992Z" fill="#D64333"/>
<path d="M6.65503 23.1069V25.5836C6.65503 25.779 6.81345 25.9374 7.00883 25.9374H9.13166C9.32705 25.9374 9.48547 25.779 9.48547 25.5836V23.8145H7.36264C6.97182 23.8145 6.65503 23.4978 6.65503 23.1069Z" fill="#696969"/>
<path d="M23.6377 23.8145H21.5149V25.5836C21.5149 25.779 21.6733 25.9374 21.8687 25.9374H23.9915C24.1869 25.9374 24.3453 25.779 24.3453 25.5836V23.1069C24.3453 23.4978 24.0285 23.8145 23.6377 23.8145Z" fill="#696969"/>
<path d="M6.65503 23.1069V24.1683C6.65503 24.3637 6.81345 24.5222 7.00883 24.5222H9.13166C9.32705 24.5222 9.48547 24.3637 9.48547 24.1683V23.8145H7.36264C6.97182 23.8145 6.65503 23.4978 6.65503 23.1069Z" fill="#5E5E5F"/>
<path d="M23.6377 23.8145H21.5149V24.1683C21.5149 24.3637 21.6733 24.5222 21.8687 24.5222H23.9915C24.1869 24.5222 24.3453 24.3637 24.3453 24.1683V23.1069C24.3453 23.4978 24.0285 23.8145 23.6377 23.8145Z" fill="#5E5E5F"/>
<path d="M20.1704 14.4907C19.9039 14.1243 19.4781 13.9077 19.0251 13.908H18.3306L14.4387 17.7998H22.5762L20.1704 14.4907Z" fill="#71C4D1"/>
<path d="M15.1462 10.0156H15.8538V11.077H15.1462V10.0156Z" fill="#87CED9"/>
<path d="M15.1462 11.7849H15.8538V12.8463H15.1462V11.7849Z" fill="#87CED9"/>
<path d="M11.0161 10.6128L11.6887 9.79175L12.2361 10.2402L11.5635 11.0612L11.0161 10.6128Z" fill="#87CED9"/>
<path d="M9.89478 11.9816L10.5675 11.1606L11.1149 11.6091L10.4421 12.4301L9.89478 11.9816Z" fill="#87CED9"/>
<path d="M8.77417 13.3501L9.44693 12.5291L9.99427 12.9775L9.32151 13.7985L8.77417 13.3501Z" fill="#87CED9"/>
<path d="M7.65356 14.7185L8.32655 13.8972L8.87388 14.3457L8.2009 15.167L7.65356 14.7185Z" fill="#87CED9"/>
<path d="M13.0938 10.9368L13.3912 9.91797L14.0705 10.1163L13.773 11.1351L13.0938 10.9368Z" fill="#87CED9"/>
<path d="M12.5977 12.6328L12.8956 11.614L13.5748 11.8127L13.2768 12.8314L12.5977 12.6328Z" fill="#87CED9"/>
<path d="M8.90039 10.4029L9.68062 9.68335L10.1601 10.2033L9.37988 10.9229L8.90039 10.4029Z" fill="#87CED9"/>
<path d="M7.60034 11.6039L8.38057 10.8843L8.86007 11.4042L8.07984 12.1238L7.60034 11.6039Z" fill="#87CED9"/>
<path d="M6.30029 12.8019L7.08052 12.0823L7.56002 12.6022L6.77979 13.3218L6.30029 12.8019Z" fill="#87CED9"/>
<path d="M5 14.0011L5.78023 13.2815L6.25972 13.8014L5.47949 14.521L5 14.0011Z" fill="#87CED9"/>
<path d="M18.7649 10.313L19.3121 9.86499L19.9845 10.6862L19.4373 11.1343L18.7649 10.313Z" fill="#87CED9"/>
<path d="M19.8862 11.6812L20.4336 11.2327L21.1065 12.0539L20.5592 12.5024L19.8862 11.6812Z" fill="#87CED9"/>
<path d="M21.0061 13.0501L21.5534 12.6016L22.2262 13.4226L21.6789 13.8711L21.0061 13.0501Z" fill="#87CED9"/>
<path d="M22.127 14.4184L22.6743 13.97L23.347 14.791L22.7996 15.2395L22.127 14.4184Z" fill="#87CED9"/>
<path d="M16.9287 10.192L17.608 9.9939L17.9052 11.0129L17.2259 11.211L16.9287 10.192Z" fill="#87CED9"/>
<path d="M17.425 11.8866L18.1042 11.688L18.402 12.7068L17.7229 12.9053L17.425 11.8866Z" fill="#87CED9"/>
<path d="M20.8396 10.2757L21.3191 9.75586L22.0993 10.4755L21.6198 10.9954L20.8396 10.2757Z" fill="#87CED9"/>
<path d="M22.1401 11.4761L22.6198 10.9563L23.3999 11.6761L22.9202 12.1959L22.1401 11.4761Z" fill="#87CED9"/>
<path d="M23.4399 12.6751L23.9196 12.1553L24.6997 12.875L24.22 13.3948L23.4399 12.6751Z" fill="#87CED9"/>
<path d="M24.7405 13.8747L25.22 13.3547L26.0002 14.0743L25.5207 14.5942L24.7405 13.8747Z" fill="#87CED9"/>
<path d="M17.3939 7.06079L15.5 8.95471H20.0995L17.3939 7.06079Z" fill="#3E8CC7"/>
</g>
<defs>
<clipPath id="clip0">
<rect width="21" height="21" fill="white" transform="translate(5 5)"/>
</clipPath>
</defs>
</svg>
