<svg width="31" height="31" viewBox="0 0 31 31" xmlns="http://www.w3.org/2000/svg">
<rect width="31" height="31" rx="5"/>
<g clip-path="url(#clip0)">
<path d="M24.5518 5.72412H13.6897C12.8911 5.7229 12.2427 6.36937 12.2415 7.16805C12.2415 7.1695 12.2415 7.17095 12.2415 7.1724V10.7931C12.2415 11.5929 12.8899 12.2414 13.6897 12.2414H24.5518C25.3505 12.2426 25.9989 11.5961 26.0001 10.7974C26.0001 10.796 26.0001 10.7945 26.0001 10.7931V7.1724C26.0001 6.37254 25.3517 5.72412 24.5518 5.72412Z" fill="#696969"/>
<path d="M24.5518 5.72412H20.9312C21.731 5.72412 22.3794 6.37254 22.3794 7.1724V10.7931C22.3795 10.8911 22.3697 10.9889 22.3501 11.0849C22.2116 11.7583 21.6187 12.2415 20.9312 12.2414H24.5518C25.3505 12.2426 25.9989 11.5961 26.0001 10.7974C26.0001 10.796 26.0001 10.7945 26.0001 10.7931V7.1724C26.0001 6.37254 25.3517 5.72412 24.5518 5.72412Z" fill="#5E5E5F"/>
<path d="M12.2415 8.62061H26.0001V9.34474H12.2415V8.62061Z" fill="#535354"/>
<path d="M12.2415 10.0688H26.0001V10.793H12.2415V10.0688Z" fill="#535354"/>
<path d="M12.2415 7.17236H26.0001V7.8965H12.2415V7.17236Z" fill="#535354"/>
<path d="M24.5518 18.7585H13.6897C12.8911 18.7573 12.2427 19.4038 12.2415 20.2025C12.2415 20.2039 12.2415 20.2054 12.2415 20.2068V23.8275C12.2415 24.6274 12.8899 25.2758 13.6897 25.2758H24.5518C25.3505 25.277 25.9989 24.6305 26.0001 23.8318C26.0001 23.8304 26.0001 23.829 26.0001 23.8275V20.2068C26.0001 19.407 25.3517 18.7585 24.5518 18.7585Z" fill="#696969"/>
<path d="M24.5518 18.7585H20.9312C21.731 18.7585 22.3794 19.407 22.3794 20.2068V23.8275C22.3795 23.9255 22.3697 24.0233 22.3501 24.1193C22.2116 24.7928 21.6187 25.276 20.9312 25.2758H24.5518C25.3505 25.277 25.9989 24.6305 26.0001 23.8319C26.0001 23.8304 26.0001 23.829 26.0001 23.8275V20.2068C26.0001 19.407 25.3517 18.7585 24.5518 18.7585Z" fill="#5E5E5F"/>
<path d="M12.2415 21.6553H26.0001V22.3794H12.2415V21.6553Z" fill="#535354"/>
<path d="M12.2415 23.1035H26.0001V23.8277H12.2415V23.1035Z" fill="#535354"/>
<path d="M12.2415 20.207H26.0001V20.9312H12.2415V20.207Z" fill="#535354"/>
<path d="M23.1036 12.2415H12.2415C11.4428 12.2402 10.7944 12.8867 10.7932 13.6854C10.7932 13.6868 10.7932 13.6883 10.7932 13.6897V17.3104C10.7932 18.1103 11.4416 18.7587 12.2415 18.7587H23.1036C23.9022 18.7599 24.5506 18.1134 24.5518 17.3148C24.5518 17.3133 24.5518 17.3119 24.5518 17.3104V13.6897C24.5518 12.8899 23.9034 12.2415 23.1036 12.2415Z" fill="#5E5E5F"/>
<path d="M23.1034 12.2415H19.4827C20.2825 12.2415 20.9309 12.8899 20.9309 13.6897V17.3104C20.931 17.4085 20.9212 17.5062 20.9016 17.6022C20.7631 18.2757 20.1702 18.7589 19.4827 18.7587H23.1034C23.902 18.7599 24.5504 18.1134 24.5516 17.3148C24.5516 17.3133 24.5516 17.3119 24.5516 17.3104V13.6897C24.5516 12.8899 23.9032 12.2415 23.1034 12.2415Z" fill="#585859"/>
<path d="M10.7932 15.1379H24.5518V15.8621H10.7932V15.1379Z" fill="#535354"/>
<path d="M10.7932 16.5862H24.5518V17.3103H10.7932V16.5862Z" fill="#535354"/>
<path d="M10.7932 13.6897H24.5518V14.4138H10.7932V13.6897Z" fill="#535354"/>
<path d="M12.2413 23.4656C15.2408 23.4656 17.6724 21.034 17.6724 18.0346C17.6724 15.0351 15.2408 12.6035 12.2413 12.6035C9.24186 12.6035 6.8103 15.0351 6.8103 18.0346C6.8103 21.034 9.24186 23.4656 12.2413 23.4656Z" fill="#4398D1"/>
<path d="M12.2414 10.7932C8.24206 10.7932 5 14.0353 5 18.0346C5 22.0339 8.24206 25.276 12.2414 25.276C16.2407 25.276 19.4828 22.0339 19.4828 18.0346C19.4828 14.0353 16.2407 10.7932 12.2414 10.7932ZM12.2414 23.4656C9.24191 23.4656 6.81034 21.0341 6.81034 18.0346C6.81034 15.0351 9.24191 12.6036 12.2414 12.6036C15.2408 12.6036 17.6724 15.0351 17.6724 18.0346C17.6724 21.0341 15.2408 23.4656 12.2414 23.4656Z" fill="#737373"/>
<path d="M14.4137 18.0346L17.3895 16.3165C17.3305 16.1427 17.265 15.9718 17.1904 15.8057L17.1839 15.793C17.1382 15.6927 17.0847 15.5971 17.0329 15.5001C17.001 15.44 16.9735 15.3773 16.9395 15.319L16.9344 15.3107C16.8439 15.1552 16.7463 15.005 16.6415 14.8599C16.5355 14.7132 16.4224 14.5721 16.3022 14.4367L13.3275 16.1518V12.7121H13.3144C13.1432 12.6777 12.9694 12.6506 12.7923 12.6328C12.4259 12.5957 12.0567 12.5957 11.6902 12.6328C11.5179 12.6502 11.3488 12.677 11.1833 12.71C11.1739 12.7201 11.1656 12.7317 11.1565 12.7426V16.1518L8.18356 14.4352L8.17378 14.4457C8.0572 14.5779 7.94641 14.7151 7.84285 14.8581C7.73808 15.003 7.64046 15.1532 7.54994 15.3089L7.54487 15.3172C7.45553 15.4712 7.37397 15.6295 7.30047 15.7915L7.29396 15.8042C7.21937 15.9703 7.15289 16.1404 7.09446 16.3147L10.0689 18.0346L7.09229 19.7529C7.15044 19.9272 7.21706 20.0973 7.29215 20.2631L7.29866 20.2758C7.37253 20.4382 7.45399 20.5963 7.54306 20.7501L7.54813 20.7584C7.63865 20.9139 7.73627 21.0641 7.84104 21.2092C7.94704 21.3559 8.06041 21.4972 8.18066 21.6324L11.1551 19.9173V23.357L11.1681 23.3588C11.3394 23.3932 11.5131 23.4203 11.6902 23.4381C12.0567 23.4752 12.4259 23.4752 12.7923 23.4381C12.9694 23.4203 13.1432 23.3932 13.3144 23.3588L13.3275 23.357V19.9173L16.3015 21.6342C16.4218 21.499 16.5351 21.3577 16.6411 21.211C16.7459 21.0662 16.8435 20.9159 16.934 20.7602L16.9391 20.7519C16.9731 20.6932 17.0007 20.6306 17.0325 20.5708C17.0843 20.4738 17.1379 20.3786 17.1835 20.2779L17.19 20.2653C17.2646 20.0994 17.3312 19.9294 17.3899 19.7551L14.4137 18.0346ZM11.5171 18.0346C11.5171 17.6346 11.8413 17.3104 12.2413 17.3104C12.6412 17.3104 12.9654 17.6346 12.9654 18.0346C12.9654 18.4345 12.6412 18.7587 12.2413 18.7587C11.8413 18.7587 11.5171 18.4345 11.5171 18.0346Z" fill="#87CED9"/>
<path d="M17.3897 16.3166C17.3307 16.1428 17.2652 15.9719 17.1906 15.8057L17.1841 15.793C17.1385 15.6927 17.0849 15.5971 17.0331 15.5001C17.0012 15.44 16.9737 15.3773 16.9397 15.3191L16.9346 15.3107C16.9248 15.2941 16.9129 15.2789 16.9031 15.2622L13.4682 17.2742C13.8916 17.9495 13.6874 18.8402 13.0121 19.2636C12.3368 19.687 11.4461 19.4828 11.0227 18.8075C11.0071 18.7827 10.9923 18.7573 10.9782 18.7316L7.53857 20.7447L7.54256 20.7523L7.54763 20.7606C7.63814 20.9161 7.73577 21.0663 7.84054 21.2114C7.94654 21.3581 8.05991 21.4993 8.18016 21.6346L11.1553 19.9173V23.357L11.1683 23.3588C11.3396 23.3932 11.5134 23.4203 11.6904 23.4381C12.0569 23.4752 12.4261 23.4752 12.7926 23.4381C12.9696 23.4203 13.1434 23.3932 13.3147 23.3588L13.3277 23.357V19.9173L16.3017 21.6343C16.422 21.499 16.5354 21.3577 16.6413 21.211C16.7461 21.0662 16.8437 20.9159 16.9343 20.7602L16.9393 20.7519C16.9734 20.6932 17.0009 20.6306 17.0327 20.5709C17.0845 20.4738 17.1381 20.3786 17.1837 20.278L17.1902 20.2653C17.2648 20.0995 17.3315 19.9294 17.3901 19.7551L14.4139 18.0346L17.3897 16.3166Z" fill="#71C4D1"/>
</g>
<defs>
<clipPath id="clip0">
<rect width="21" height="21" fill="white" transform="translate(5 5)"/>
</clipPath>
</defs>
</svg>
